<?xml version="1.0" encoding="utf-8"?>
<!-- Generator: Adobe Illustrator 26.5.0, SVG Export Plug-In . SVG Version: 6.00 Build 0)  -->
<svg version="1.1" id="Layer_1" xmlns="http://www.w3.org/2000/svg" xmlns:xlink="http://www.w3.org/1999/xlink" x="0px" y="0px"
	 viewBox="0 0 300 250" style="enable-background:new 0 0 300 300;" xml:space="preserve">
<style type="text/css">
	.st0{opacity:0.5;}
	.st1{fill:#EF8229;}
	.st2{fill:#E1EBFF;}
	.st3{fill:#EDF3FF;}
	.st4{fill:#C7D6F2;}
	.st5{fill:#383838;}
	.st6{fill:#FFFFFF;}
	.st7{fill:#ABBCD6;}
	.st8{fill:#FFBD39;}
	.st9{fill:#FFAE1F;}
	.st10{fill:#1F2123;}
	.st11{fill:#FFC5C5;}
	.st12{fill:#FCAFAF;}
	.st13{fill:#2B2B2B;}
	.st14{fill:#061437;}
	.st15{fill:#65C49B;}
	.st16{fill:#4E9D7E;}
</style>
<g class="st0">
	<path class="st1" d="M85.4,188.52c-15.59-3.37-27.22-17.68-30.87-33.21c-3.66-15.52-0.46-31.93,5.17-46.85
		c3.42-9.03,8.72-17.07,13.81-25.24c20.03-32.14,56.28-50.85,94.02-47.69c0.65,0.05,1.29,0.12,1.94,0.18
		c8.46,0.87,16.97,2.91,24.12,7.49c7.16,4.59,12.82,12.01,13.78,20.46c1.07,9.39-3.51,19.49,0.54,28.03
		c4.05,8.56,14.72,11.31,24.08,12.76c9.36,1.45,19.96,3.3,25.14,11.24c4.22,6.46,3.34,14.99,1.14,22.4
		c-5.44,18.32-18.22,34.35-34.86,43.74c-16.64,9.39-36.96,12.04-55.46,7.23c-8.42-2.19-16.52-5.87-25.18-6.73
		C123.49,180.39,104.34,192.61,85.4,188.52L85.4,188.52z"/>
	<path class="st1" d="M233.23,33.24c-2.75-1.59-4.74-3.2-7.99-2.55c-3.31,0.66-6.4,2.48-8.57,5.07c-2.75,3.28-3.98,7.79-3.29,12.01
		c0.78,4.77,3.77,8.83,6.39,12.9c2.62,4.07,5.01,8.72,4.37,13.51c-0.47,3.46-2.47,6.51-3.51,9.84c-1.04,3.33-0.76,7.63,2.21,9.47
		c2.53,1.57,5.81,0.66,8.62-0.34c5.48-1.94,10.96-4.08,15.76-7.38c4.8-3.29,8.91-7.86,10.68-13.4c2.81-8.82-0.81-18.68-6.91-25.65
		C246.04,41.09,239.68,36.97,233.23,33.24z"/>
</g>
<ellipse class="st1" cx="150" cy="216.18" rx="128" ry="11.63"/>
<path class="st2" d="M228.52,215.36h-70.25c-7.78,0-14.11-6.34-14.11-14.12V41.15c0-7.78,6.33-14.11,14.11-14.11h70.25
	c7.78,0,14.11,6.33,14.11,14.11l0,160.09C242.63,209.03,236.3,215.36,228.52,215.36L228.52,215.36z"/>
<path class="st3" d="M148.01,201.24V41.15c0-5.64,4.62-10.26,10.26-10.26h9.36c0.86,0,1.57,0.71,1.57,1.57V33
	c0,2.46,1.99,4.45,4.45,4.45h39.47c0,0,0.01,0,0.01,0c2.45,0,4.43-1.99,4.43-4.44v-0.54c0-0.86,0.71-1.57,1.57-1.57h9.36
	c5.64,0,10.26,4.62,10.26,10.26l0,160.1c0,0,0,0.01,0,0.01c0,5.66-4.59,10.24-10.25,10.24h-70.25
	C152.63,211.5,148.01,206.88,148.01,201.24L148.01,201.24z"/>
<path class="st4" d="M177.34,30.89h24.2c0.88,0,1.61,0.72,1.61,1.61c0,0.89-0.73,1.62-1.61,1.62h-24.2c-0.89,0-1.61-0.73-1.61-1.62
	S176.44,30.89,177.34,30.89z"/>
<circle class="st4" cx="205.41" cy="32.51" r="1.62"/>
<circle class="st4" cx="209.43" cy="32.51" r="1.62"/>

	c0.26-0.47,0.62-0.82,1.07-1.07c0.47-0.25,1-0.38,1.54-0.37c0.39,0,0.74,0.05,1.04,0.14c0.31,0.09,0.61,0.22,0.91,0.39
	c0.12,0.06,0.2,0.19,0.19,0.33c0,0.18-0.15,0.33-0.33,0.33c0,0-0.01,0-0.01,0c-0.05,0-0.11-0.01-0.15-0.03
	c-0.23-0.12-0.48-0.23-0.74-0.3c-0.27-0.07-0.55-0.11-0.83-0.1c-0.49,0-0.91,0.1-1.26,0.31c-0.35,0.2-0.61,0.48-0.78,0.83
	c-0.17,0.35-0.26,0.75-0.26,1.2c0,0.44,0.09,0.84,0.26,1.19c0.18,0.35,0.43,0.63,0.78,0.83c0.35,0.2,0.76,0.3,1.26,0.3
	c0.31,0,0.59-0.03,0.83-0.1c0.24-0.07,0.49-0.17,0.74-0.3c0.05-0.02,0.1-0.04,0.15-0.03c0.1,0,0.19,0.03,0.25,0.09
	c0.06,0.06,0.09,0.14,0.09,0.23c0.01,0.14-0.07,0.26-0.19,0.33c-0.3,0.17-0.61,0.3-0.91,0.39s-0.65,0.14-1.04,0.14
	C167.11,52.58,166.58,52.46,166.11,52.2z M171.87,52.18c-0.45-0.26-0.81-0.63-1.05-1.09c-0.25-0.46-0.38-0.99-0.39-1.59
	c0.01-0.6,0.14-1.13,0.39-1.6c0.24-0.46,0.6-0.83,1.05-1.09c0.45-0.26,0.98-0.4,1.58-0.4s1.12,0.13,1.57,0.4
	c0.45,0.26,0.8,0.63,1.05,1.09c0.25,0.47,0.38,0.99,0.39,1.59c-0.01,0.59-0.14,1.12-0.39,1.59c-0.25,0.47-0.6,0.83-1.05,1.09
	c-0.45,0.26-0.97,0.39-1.57,0.39C172.84,52.58,172.32,52.44,171.87,52.18z M174.63,51.54c0.33-0.2,0.6-0.49,0.77-0.84
	c0.18-0.35,0.27-0.76,0.27-1.2c0.01-0.42-0.08-0.83-0.27-1.2c-0.17-0.35-0.44-0.64-0.77-0.84c-0.34-0.21-0.74-0.31-1.19-0.31
	c-0.46,0-0.86,0.1-1.2,0.31c-0.33,0.21-0.59,0.49-0.77,0.84c-0.18,0.37-0.27,0.78-0.26,1.2c0,0.44,0.09,0.85,0.26,1.2
	s0.43,0.63,0.77,0.84c0.34,0.21,0.73,0.31,1.2,0.31C173.9,51.85,174.3,51.74,174.63,51.54z M177.87,52.42
	c-0.07-0.07-0.11-0.17-0.11-0.27v-5.12c0-0.15,0.06-0.29,0.16-0.4s0.24-0.17,0.39-0.17h0.11c0.18,0,0.34,0.09,0.47,0.26l3.3,4.76
	v-4.63c0-0.11,0.04-0.2,0.11-0.28c0.07-0.08,0.17-0.12,0.27-0.12s0.2,0.04,0.28,0.12c0.08,0.08,0.12,0.17,0.12,0.28v5.12
	c0,0.15-0.06,0.29-0.17,0.39c-0.11,0.11-0.25,0.17-0.4,0.16h-0.1c-0.09,0-0.18-0.02-0.26-0.06s-0.15-0.1-0.2-0.17l-3.32-4.79v4.64
	c0,0.11-0.04,0.2-0.11,0.27s-0.17,0.11-0.28,0.11S177.94,52.5,177.87,52.42z M186.14,52.42c-0.07-0.07-0.11-0.17-0.11-0.27v-4.91
	h-1.75c-0.19,0.01-0.35-0.15-0.36-0.34c0-0.01,0-0.01,0-0.02c0-0.1,0.03-0.19,0.1-0.26c0.07-0.07,0.16-0.11,0.26-0.11h4.27
	c0.1,0,0.19,0.04,0.26,0.11c0.07,0.07,0.11,0.16,0.11,0.26c0,0.1-0.04,0.19-0.11,0.26c-0.07,0.07-0.16,0.11-0.26,0.1h-1.74v4.91
	c0,0.11-0.04,0.2-0.12,0.27c-0.08,0.07-0.17,0.11-0.28,0.11C186.3,52.53,186.21,52.5,186.14,52.42z M189.03,52.42
	c-0.07-0.07-0.11-0.17-0.11-0.27c0-0.06,0.02-0.12,0.04-0.17l2.18-5.16c0.04-0.1,0.11-0.19,0.19-0.25c0.09-0.07,0.19-0.1,0.3-0.1
	h0.09c0.11,0,0.22,0.03,0.3,0.1c0.08,0.07,0.15,0.15,0.19,0.25l2.19,5.16c0.08,0.15,0.05,0.33-0.06,0.45
	c-0.07,0.07-0.17,0.12-0.28,0.11c-0.08,0-0.15-0.02-0.22-0.06c-0.07-0.04-0.12-0.1-0.15-0.18l-0.56-1.34h-2.91l-0.56,1.34
	c-0.03,0.07-0.08,0.13-0.15,0.18c-0.06,0.04-0.14,0.06-0.22,0.06C189.2,52.54,189.1,52.5,189.03,52.42L189.03,52.42z M190.53,50.24
	h2.32l-1.16-2.79C191.69,47.46,190.53,50.24,190.53,50.24z M196.7,52.2c-0.45-0.25-0.81-0.6-1.07-1.07
	c-0.26-0.47-0.39-1.01-0.39-1.63s0.13-1.17,0.39-1.63c0.26-0.47,0.62-0.82,1.07-1.07c0.47-0.25,1-0.38,1.54-0.37
	c0.39,0,0.74,0.05,1.04,0.14c0.3,0.09,0.61,0.22,0.91,0.39c0.12,0.06,0.2,0.19,0.19,0.33c0,0.18-0.15,0.33-0.33,0.33
	c0,0-0.01,0-0.01,0c-0.05,0-0.11-0.01-0.15-0.03c-0.24-0.12-0.48-0.23-0.74-0.3c-0.27-0.07-0.55-0.11-0.83-0.1
	c-0.49,0-0.91,0.1-1.26,0.31c-0.35,0.2-0.61,0.48-0.78,0.83c-0.18,0.35-0.26,0.75-0.26,1.2c0,0.44,0.09,0.84,0.26,1.19
	c0.18,0.35,0.43,0.63,0.78,0.83c0.35,0.2,0.76,0.3,1.26,0.3c0.32,0,0.59-0.03,0.83-0.1c0.24-0.07,0.49-0.17,0.74-0.3
	c0.05-0.02,0.1-0.04,0.15-0.03c0.1,0,0.19,0.03,0.25,0.09c0.06,0.06,0.09,0.14,0.09,0.23c0.01,0.14-0.07,0.26-0.19,0.33
	c-0.3,0.17-0.61,0.3-0.91,0.39s-0.65,0.14-1.04,0.14C197.7,52.58,197.17,52.46,196.7,52.2z M203.06,52.42
	c-0.07-0.07-0.11-0.17-0.11-0.27v-4.91h-1.75c-0.19,0.01-0.35-0.15-0.36-0.34c0-0.01,0-0.01,0-0.02c0-0.1,0.03-0.19,0.1-0.26
	c0.07-0.07,0.16-0.11,0.26-0.11h4.27c0.1,0,0.19,0.04,0.26,0.11c0.07,0.07,0.11,0.16,0.11,0.26c0,0.1-0.04,0.19-0.11,0.26
	c-0.07,0.07-0.16,0.11-0.26,0.1h-1.74v4.91c0,0.11-0.04,0.2-0.12,0.27c-0.08,0.07-0.17,0.11-0.28,0.11
	C203.22,52.53,203.13,52.5,203.06,52.42z M210.25,52.32c-0.38-0.17-0.7-0.44-0.93-0.78c-0.24-0.35-0.36-0.78-0.36-1.29v-3.39
	c0-0.11,0.04-0.2,0.11-0.28c0.07-0.08,0.17-0.12,0.28-0.12c0.11,0,0.2,0.04,0.28,0.12s0.11,0.17,0.11,0.28v3.41
	c0,0.34,0.08,0.63,0.24,0.88c0.16,0.24,0.36,0.42,0.62,0.54c0.26,0.12,0.53,0.18,0.82,0.18c0.29,0,0.57-0.06,0.82-0.18
	c0.26-0.12,0.46-0.3,0.62-0.54s0.24-0.53,0.24-0.88v-3.41c0-0.11,0.04-0.2,0.11-0.28s0.17-0.12,0.27-0.12c0.11,0,0.2,0.04,0.28,0.12
	s0.12,0.17,0.12,0.28v3.39c0,0.51-0.12,0.94-0.36,1.29c-0.24,0.35-0.55,0.61-0.93,0.78C211.85,52.66,210.99,52.66,210.25,52.32z
	 M215.35,52.16c-0.07-0.03-0.13-0.08-0.17-0.14c-0.04-0.06-0.07-0.13-0.07-0.21c0-0.1,0.03-0.18,0.1-0.25
	c0.06-0.07,0.16-0.11,0.25-0.11c0.06,0,0.11,0.01,0.16,0.03c0.53,0.24,1.11,0.36,1.69,0.35c1,0,1.5-0.33,1.5-0.99
	c0-0.16-0.07-0.32-0.19-0.43c-0.14-0.12-0.3-0.21-0.48-0.27c-0.27-0.09-0.53-0.17-0.81-0.24c-0.46-0.12-0.84-0.24-1.12-0.35
	c-0.28-0.11-0.53-0.28-0.74-0.5c-0.21-0.22-0.31-0.52-0.31-0.89c0-0.33,0.09-0.62,0.26-0.89c0.17-0.27,0.43-0.48,0.76-0.63
	c0.34-0.16,0.74-0.24,1.2-0.24c0.58-0.01,1.16,0.09,1.71,0.28c0.16,0.06,0.24,0.17,0.24,0.34c0,0.09-0.03,0.18-0.1,0.25
	c-0.06,0.07-0.15,0.11-0.25,0.11c-0.05,0-0.09-0.01-0.14-0.03c-0.44-0.15-0.91-0.23-1.38-0.23c-0.45,0-0.82,0.08-1.1,0.26
	c-0.28,0.17-0.42,0.41-0.42,0.72c0,0.21,0.07,0.37,0.2,0.5c0.13,0.13,0.3,0.23,0.51,0.3c0.27,0.09,0.55,0.17,0.83,0.23
	c0.45,0.11,0.82,0.22,1.09,0.33s0.51,0.28,0.71,0.51s0.29,0.54,0.29,0.92c0,0.32-0.09,0.61-0.27,0.86c-0.18,0.26-0.44,0.45-0.77,0.6
	c-0.36,0.15-0.76,0.22-1.15,0.21C216.69,52.58,215.99,52.44,215.35,52.16L215.35,52.16z"/>
<path class="st2" d="M153.06,77.52V66.25c0-1.03,0.83-1.86,1.86-1.86h72.15c1.03,0,1.86,0.83,1.86,1.86v11.27c0,0,0,0,0,0
	c0,1.03-0.83,1.86-1.86,1.86h-72.15C153.89,79.38,153.06,78.55,153.06,77.52z"/>
<path class="st6" d="M155.3,74.31V63.04c0-1.03,0.83-1.86,1.86-1.86h72.15c1.03,0,1.86,0.83,1.86,1.86v11.27c0,0,0,0,0,0
	c0,1.03-0.84,1.86-1.86,1.86h-72.15C156.14,76.17,155.3,75.33,155.3,74.31z"/>
<!-- <path class="st2" d="M153.06,99.98V88.71c0-1.03,0.83-1.86,1.86-1.86h72.15c1.03,0,1.86,0.83,1.86,1.86v11.27 -->
	c0,1.03-0.83,1.86-1.86,1.86h-72.15C153.89,101.84,153.06,101.01,153.06,99.98z"/>
<path class="st6" d="M155.3,96.76V85.49c0-1.03,0.83-1.86,1.86-1.86h72.15c1.03,0,1.86,0.83,1.86,1.86v11.27c0,0,0,0,0,0
	c0,1.03-0.84,1.86-1.86,1.86h-72.15C156.14,98.62,155.3,97.79,155.3,96.76z"/>
<!-- <path class="st2" d="M153.06,122.43v-11.27c0-1.03,0.83-1.86,1.86-1.86h72.15c1.03,0,1.86,0.83,1.86,1.86v11.27 -->
	c0,1.03-0.83,1.86-1.86,1.86h-72.15C153.89,124.3,153.06,123.46,153.06,122.43z"/>
<path class="st6" d="M157.17,121.08c-1.03,0-1.86-0.83-1.86-1.86v-11.27c0-1.03,0.83-1.86,1.86-1.86h72.15
	c1.03,0,1.86,0.83,1.86,1.86v11.27c0,0,0,0,0,0c0,1.03-0.84,1.86-1.86,1.86L157.17,121.08L157.17,121.08z"/>
<path class="st2" d="M153.06,196.09v-62.47c0-1.03,0.83-1.86,1.86-1.86h72.15c1.03,0,1.86,0.83,1.86,1.86v62.47l0,0
	c0,1.03-0.83,1.86-1.86,1.86h-72.15C153.89,197.95,153.06,197.12,153.06,196.09z"/>
<path class="st6" d="M155.3,192.87v-62.47c0-1.03,0.83-1.86,1.86-1.86h72.15c1.03,0,1.86,0.83,1.86,1.86v62.47c0,0,0,0,0,0
	c0,1.03-0.84,1.86-1.86,1.86h-72.15C156.14,194.74,155.3,193.9,155.3,192.87z"/>
<!-- <path class="st7" d="M158.97,71.32c-0.06-0.06-0.09-0.14-0.09-0.22v-4.3c0-0.09,0.03-0.17,0.09-0.23c0.06-0.06,0.14-0.1,0.22-0.1 -->
	h2.73c0.08,0,0.16,0.03,0.21,0.09c0.06,0.06,0.09,0.13,0.09,0.21c0,0.16-0.13,0.3-0.3,0.3c0,0,0,0,0,0h-2.41v1.55h2.16
	c0.09,0,0.16,0.03,0.21,0.09c0.06,0.06,0.09,0.13,0.09,0.21s-0.03,0.15-0.09,0.21c-0.06,0.06-0.13,0.09-0.21,0.08h-2.16v1.88
	c0,0.18-0.15,0.32-0.32,0.32C159.11,71.42,159.02,71.39,158.97,71.32L158.97,71.32z M164.17,71.24c-0.31-0.14-0.57-0.36-0.76-0.64
	c-0.2-0.29-0.3-0.64-0.3-1.06v-2.78c0-0.09,0.03-0.17,0.09-0.23c0.06-0.06,0.14-0.1,0.22-0.1c0.09,0,0.17,0.03,0.23,0.1
	c0.06,0.06,0.1,0.14,0.1,0.23v2.8c0,0.28,0.07,0.52,0.19,0.72s0.3,0.34,0.51,0.44c0.21,0.1,0.43,0.15,0.67,0.15
	c0.24,0,0.46-0.05,0.68-0.15c0.21-0.1,0.38-0.25,0.51-0.44s0.19-0.44,0.19-0.72v-2.8c0-0.18,0.14-0.32,0.31-0.32
	c0.09,0,0.17,0.03,0.23,0.1c0.06,0.06,0.1,0.14,0.1,0.23v2.78c0,0.42-0.1,0.77-0.29,1.06c-0.2,0.29-0.45,0.5-0.76,0.64
	C165.48,71.52,164.78,71.52,164.17,71.24L164.17,71.24z M168.61,71.25c-0.08-0.08-0.13-0.19-0.13-0.31v-4.18
	c0-0.09,0.03-0.17,0.09-0.23c0.06-0.06,0.13-0.1,0.22-0.1c0.09,0,0.16,0.03,0.23,0.1c0.06,0.06,0.1,0.14,0.09,0.23v3.98h2.3
	c0.09,0,0.16,0.03,0.23,0.1c0.06,0.06,0.09,0.14,0.09,0.23c0,0.18-0.15,0.32-0.32,0.32c0,0,0,0,0,0h-2.49
	C168.8,71.38,168.69,71.33,168.61,71.25z M172.65,71.25c-0.08-0.08-0.13-0.19-0.13-0.31v-4.18c0-0.09,0.03-0.17,0.09-0.23
	c0.06-0.06,0.14-0.1,0.22-0.1c0.09,0,0.17,0.03,0.23,0.1c0.06,0.06,0.1,0.14,0.09,0.23v3.98h2.3c0.09,0,0.16,0.03,0.23,0.1
	c0.06,0.06,0.09,0.14,0.09,0.23c0,0.18-0.15,0.32-0.32,0.32c0,0,0,0,0,0h-2.5C172.85,71.38,172.74,71.33,172.65,71.25z
	 M178.49,71.32c-0.06-0.06-0.09-0.14-0.09-0.22v-4.2c0-0.13,0.04-0.24,0.13-0.33c0.09-0.09,0.2-0.14,0.32-0.14h0.09
	c0.15,0,0.28,0.07,0.39,0.21l2.71,3.91v-3.8c0-0.18,0.14-0.32,0.31-0.32c0.09,0,0.17,0.03,0.23,0.1c0.06,0.06,0.1,0.14,0.1,0.23v4.2
	c0,0.12-0.05,0.24-0.14,0.32c-0.09,0.09-0.2,0.14-0.33,0.13h-0.09c-0.07,0-0.15-0.02-0.21-0.05c-0.06-0.03-0.12-0.08-0.16-0.14
	l-2.72-3.93v3.8c0,0.18-0.15,0.32-0.32,0.32C178.63,71.42,178.55,71.39,178.49,71.32L178.49,71.32z M183.8,71.32
	c-0.06-0.06-0.09-0.14-0.09-0.22c0-0.04,0.01-0.08,0.04-0.14l1.79-4.23c0.04-0.08,0.09-0.15,0.16-0.21
	c0.07-0.05,0.16-0.08,0.25-0.08h0.07c0.1,0,0.18,0.03,0.25,0.08c0.07,0.06,0.12,0.13,0.16,0.21l1.79,4.23
	c0.02,0.04,0.03,0.09,0.04,0.14c0,0.09-0.03,0.16-0.09,0.22c-0.06,0.06-0.14,0.09-0.23,0.09c-0.06,0-0.13-0.02-0.18-0.05
	c-0.05-0.04-0.1-0.09-0.12-0.14l-0.46-1.1h-2.39l-0.46,1.1c-0.07,0.17-0.27,0.24-0.44,0.17C183.86,71.37,183.83,71.35,183.8,71.32z
	 M185.04,69.54h1.9l-0.95-2.29C185.98,67.25,185.04,69.54,185.04,69.54z M189.38,71.32c-0.06-0.06-0.09-0.14-0.09-0.22v-4.2
	c0-0.13,0.04-0.24,0.13-0.33s0.2-0.14,0.32-0.14h0.23c0.09,0,0.18,0.03,0.26,0.08c0.08,0.05,0.13,0.13,0.17,0.21l1.6,3.98l1.6-3.98
	c0.04-0.08,0.1-0.15,0.17-0.21s0.16-0.08,0.26-0.08h0.23c0.13,0,0.23,0.05,0.32,0.14c0.09,0.09,0.13,0.2,0.13,0.33v4.2
	c0,0.17-0.13,0.31-0.3,0.32c0,0-0.01,0-0.01,0c-0.18,0-0.32-0.14-0.32-0.32c0,0,0,0,0,0v-3.99l-1.62,4.01
	c-0.08,0.18-0.25,0.3-0.45,0.29c-0.1,0-0.19-0.03-0.27-0.08c-0.08-0.05-0.14-0.13-0.18-0.21l-1.62-4.01v3.99
	c0,0.18-0.15,0.32-0.32,0.32C189.52,71.42,189.44,71.38,189.38,71.32L189.38,71.32z M196.17,71.29c-0.06-0.06-0.09-0.14-0.09-0.23
	V66.8c0-0.09,0.03-0.17,0.09-0.23c0.06-0.06,0.14-0.1,0.22-0.1h2.82c0.08,0,0.15,0.03,0.21,0.09c0.06,0.06,0.09,0.13,0.09,0.21
	c0,0.16-0.13,0.3-0.3,0.3c0,0,0,0-0.01,0h-2.5v1.55h2.24c0.09,0,0.16,0.03,0.21,0.09c0.06,0.06,0.09,0.13,0.09,0.21
	s-0.03,0.15-0.09,0.21c-0.06,0.06-0.13,0.09-0.21,0.08h-2.24v1.56h2.5c0.08,0,0.15,0.03,0.21,0.09c0.06,0.06,0.09,0.13,0.09,0.21
	c0,0.08-0.03,0.15-0.09,0.21s-0.13,0.08-0.21,0.08h-2.82C196.31,71.38,196.23,71.35,196.17,71.29L196.17,71.29z M158.97,94.25
	c-0.06-0.06-0.09-0.14-0.09-0.22v-4.27c0-0.09,0.03-0.17,0.09-0.23c0.06-0.06,0.14-0.1,0.22-0.1h2.82c0.08,0,0.15,0.03,0.21,0.09
	c0.06,0.06,0.09,0.13,0.09,0.21c0,0.16-0.13,0.3-0.3,0.3c0,0,0,0-0.01,0h-2.5v1.55h2.24c0.09,0,0.16,0.03,0.21,0.09
	c0.06,0.06,0.09,0.13,0.09,0.21s-0.03,0.15-0.09,0.21c-0.06,0.06-0.13,0.09-0.21,0.08h-2.24v1.56h2.5c0.08,0,0.15,0.03,0.21,0.09
	c0.06,0.06,0.09,0.13,0.09,0.21c0,0.08-0.03,0.16-0.09,0.21c-0.06,0.06-0.13,0.09-0.21,0.08h-2.82
	C159.11,94.34,159.02,94.31,158.97,94.25L158.97,94.25z M163.24,92.57c-0.05-0.05-0.08-0.12-0.08-0.2c0-0.16,0.12-0.29,0.28-0.29
	c0,0,0,0,0,0h1.33c0.08,0,0.15,0.03,0.2,0.08c0.06,0.06,0.08,0.12,0.08,0.2s-0.03,0.15-0.08,0.2c-0.05,0.05-0.13,0.08-0.2,0.08
	h-1.33C163.37,92.66,163.29,92.63,163.24,92.57L163.24,92.57z M166.32,94.29c-0.06-0.06-0.09-0.14-0.09-0.22v-4.2
	c0-0.13,0.04-0.24,0.13-0.33s0.2-0.14,0.32-0.14h0.23c0.09,0,0.18,0.03,0.26,0.08c0.08,0.05,0.14,0.13,0.17,0.21l1.6,3.98l1.6-3.98
	c0.04-0.08,0.1-0.15,0.17-0.21s0.16-0.08,0.26-0.08h0.23c0.13,0,0.24,0.04,0.32,0.14c0.09,0.09,0.13,0.2,0.13,0.33v4.2
	c0,0.17-0.13,0.31-0.3,0.32c0,0-0.01,0-0.01,0c-0.18,0-0.32-0.14-0.32-0.32c0,0,0,0,0,0v-3.99l-1.62,4.01
	c-0.08,0.18-0.25,0.3-0.45,0.29c-0.1,0-0.19-0.03-0.27-0.08c-0.08-0.05-0.14-0.13-0.18-0.21l-1.62-4.01v3.99
	c0,0.18-0.15,0.32-0.32,0.32C166.46,94.38,166.38,94.35,166.32,94.29L166.32,94.29z M172.77,94.29c-0.06-0.06-0.09-0.14-0.09-0.22
	c0-0.04,0.01-0.08,0.04-0.14l1.79-4.23c0.04-0.08,0.09-0.15,0.16-0.21c0.07-0.05,0.16-0.08,0.25-0.08h0.07
	c0.1,0,0.18,0.03,0.25,0.08c0.07,0.06,0.12,0.13,0.16,0.21l1.79,4.23c0.02,0.04,0.03,0.09,0.04,0.14c0,0.09-0.03,0.16-0.09,0.22
	c-0.06,0.06-0.14,0.1-0.23,0.09c-0.06,0-0.13-0.02-0.18-0.05c-0.05-0.04-0.1-0.09-0.12-0.14l-0.46-1.1h-2.39l-0.46,1.1
	c-0.07,0.17-0.27,0.24-0.44,0.17C172.83,94.33,172.8,94.31,172.77,94.29z M174.01,92.5h1.9l-0.95-2.29
	C174.96,90.22,174.01,92.5,174.01,92.5z M178.35,94.29c-0.06-0.06-0.09-0.14-0.09-0.22v-4.34c0-0.09,0.03-0.17,0.09-0.23
	c0.06-0.06,0.14-0.1,0.22-0.1c0.09,0,0.17,0.03,0.23,0.1c0.06,0.06,0.1,0.14,0.1,0.23v4.34c0,0.18-0.15,0.32-0.32,0.32
	C178.49,94.38,178.41,94.35,178.35,94.29L178.35,94.29z M180.39,94.21c-0.08-0.08-0.13-0.2-0.13-0.31v-4.18
	c0-0.09,0.03-0.17,0.09-0.23c0.06-0.06,0.14-0.1,0.22-0.1c0.09,0,0.17,0.03,0.23,0.1c0.06,0.06,0.1,0.14,0.1,0.23v3.98h2.3
	c0.09,0,0.17,0.03,0.23,0.1c0.06,0.06,0.1,0.14,0.1,0.23c0,0.09-0.03,0.16-0.1,0.22s-0.14,0.09-0.23,0.09h-2.49
	C180.59,94.34,180.48,94.3,180.39,94.21L180.39,94.21z M158.97,115.14c-0.06-0.06-0.09-0.14-0.09-0.22v-4.3
	c0-0.09,0.03-0.17,0.09-0.23c0.06-0.06,0.14-0.1,0.22-0.1h1.6c0.44,0,0.81,0.08,1.09,0.22c0.28,0.15,0.48,0.34,0.6,0.58
	s0.18,0.49,0.18,0.76s-0.06,0.53-0.18,0.76s-0.32,0.43-0.6,0.58c-0.28,0.15-0.65,0.22-1.09,0.22h-1.28v1.5
	c0,0.18-0.15,0.32-0.32,0.32C159.11,115.23,159.02,115.19,158.97,115.14z M160.73,112.8c0.48,0,0.81-0.09,1.01-0.27
	c0.19-0.17,0.3-0.42,0.29-0.68c0.01-0.26-0.1-0.51-0.29-0.68c-0.19-0.18-0.53-0.27-1.01-0.27h-1.22v1.91
	C159.51,112.8,160.73,112.8,160.73,112.8z M163.69,115.14c-0.06-0.06-0.09-0.14-0.09-0.22v-4.34c0-0.09,0.03-0.17,0.09-0.23
	c0.06-0.06,0.13-0.1,0.22-0.1c0.09,0,0.16,0.03,0.23,0.1c0.06,0.06,0.1,0.14,0.09,0.23v1.87h2.66v-1.87c0-0.09,0.03-0.17,0.09-0.23
	c0.06-0.06,0.14-0.1,0.23-0.1c0.09,0,0.16,0.03,0.23,0.1c0.06,0.06,0.1,0.14,0.1,0.23v4.34c0,0.18-0.15,0.32-0.32,0.32
	c-0.08,0-0.17-0.03-0.23-0.09c-0.06-0.06-0.09-0.14-0.09-0.22v-1.87h-2.66v1.87c0,0.18-0.15,0.32-0.32,0.32
	C163.83,115.23,163.75,115.19,163.69,115.14z M169.78,114.94c-0.36-0.21-0.66-0.52-0.86-0.89c-0.21-0.4-0.32-0.85-0.32-1.31
	c0-0.45,0.11-0.9,0.32-1.31c0.2-0.38,0.49-0.68,0.86-0.89c0.37-0.22,0.8-0.32,1.29-0.32c0.49,0,0.92,0.11,1.29,0.32
	c0.37,0.21,0.65,0.51,0.86,0.9c0.2,0.38,0.31,0.82,0.32,1.3c-0.01,0.49-0.12,0.92-0.32,1.3c-0.2,0.38-0.49,0.68-0.86,0.9
	c-0.37,0.21-0.8,0.32-1.29,0.32C170.59,115.26,170.15,115.15,169.78,114.94L169.78,114.94z M172.05,114.41
	c0.28-0.17,0.49-0.4,0.63-0.69c0.15-0.31,0.22-0.64,0.22-0.98c0.01-0.34-0.07-0.68-0.22-0.98c-0.14-0.29-0.36-0.53-0.63-0.69
	c-0.3-0.17-0.63-0.26-0.98-0.25c-0.38,0-0.71,0.08-0.98,0.25s-0.48,0.4-0.63,0.69c-0.14,0.29-0.22,0.62-0.22,0.98
	c0,0.36,0.07,0.69,0.22,0.98c0.15,0.29,0.36,0.52,0.63,0.69c0.27,0.17,0.6,0.25,0.98,0.25
	C171.45,114.66,171.78,114.58,172.05,114.41L172.05,114.41z M174.7,115.14c-0.06-0.06-0.09-0.14-0.09-0.22v-4.2
	c0-0.13,0.04-0.24,0.13-0.33s0.2-0.14,0.32-0.14h0.09c0.15,0,0.28,0.07,0.39,0.21l2.71,3.91v-3.8c0-0.18,0.14-0.32,0.31-0.32
	c0.09,0,0.17,0.03,0.23,0.1c0.06,0.06,0.1,0.14,0.1,0.23v4.2c0,0.12-0.05,0.24-0.14,0.32c-0.09,0.09-0.2,0.14-0.33,0.13h-0.08
	c-0.07,0-0.15-0.02-0.21-0.05c-0.06-0.03-0.12-0.08-0.16-0.14l-2.72-3.93v3.8c0,0.18-0.15,0.32-0.32,0.32
	C174.84,115.23,174.76,115.2,174.7,115.14z M180.35,115.1c-0.06-0.06-0.09-0.14-0.09-0.22v-4.27c0-0.09,0.03-0.17,0.09-0.23
	c0.06-0.06,0.14-0.1,0.22-0.1h2.82c0.08,0,0.15,0.03,0.21,0.09c0.06,0.06,0.09,0.13,0.09,0.21c0,0.16-0.13,0.3-0.3,0.3
	c0,0,0,0-0.01,0h-2.5v1.55h2.24c0.08,0,0.16,0.03,0.21,0.09c0.06,0.06,0.09,0.13,0.09,0.21s-0.03,0.15-0.09,0.21
	c-0.06,0.06-0.13,0.09-0.21,0.08h-2.24v1.56h2.5c0.08,0,0.15,0.03,0.21,0.09c0.06,0.06,0.09,0.13,0.09,0.21
	c0,0.08-0.03,0.15-0.09,0.21s-0.13,0.08-0.21,0.08h-2.82C180.49,115.19,180.41,115.16,180.35,115.1L180.35,115.1z M186.66,115.14
	c-0.06-0.06-0.09-0.14-0.09-0.22v-4.2c0-0.13,0.04-0.24,0.13-0.33s0.2-0.14,0.32-0.14h0.09c0.15,0,0.28,0.07,0.39,0.21l2.71,3.91
	v-3.8c0-0.18,0.14-0.32,0.31-0.32c0.09,0,0.17,0.03,0.23,0.1c0.06,0.06,0.1,0.14,0.1,0.23v4.2c0,0.12-0.05,0.24-0.14,0.32
	c-0.09,0.09-0.2,0.14-0.33,0.13h-0.09c-0.07,0-0.15-0.02-0.21-0.05c-0.06-0.03-0.12-0.08-0.16-0.14l-2.72-3.93v3.8
	c0,0.18-0.15,0.32-0.32,0.32C186.8,115.23,186.72,115.2,186.66,115.14z M193.23,115.05c-0.31-0.14-0.57-0.36-0.76-0.64
	c-0.2-0.29-0.29-0.64-0.29-1.06v-2.78c0-0.09,0.03-0.17,0.09-0.23c0.06-0.06,0.13-0.1,0.22-0.1c0.09,0,0.16,0.03,0.23,0.1
	c0.06,0.06,0.1,0.14,0.1,0.23v2.8c0,0.28,0.06,0.52,0.19,0.72s0.3,0.34,0.51,0.44c0.21,0.1,0.43,0.15,0.68,0.15s0.46-0.05,0.67-0.15
	c0.21-0.1,0.38-0.25,0.51-0.44c0.13-0.2,0.19-0.44,0.19-0.72v-2.8c0-0.18,0.14-0.32,0.31-0.32c0.09,0,0.17,0.03,0.23,0.1
	c0.06,0.06,0.1,0.14,0.1,0.23v2.78c0,0.42-0.1,0.77-0.29,1.06c-0.2,0.29-0.45,0.5-0.76,0.64
	C194.55,115.33,193.84,115.33,193.23,115.05z M197.63,115.14c-0.06-0.06-0.09-0.14-0.09-0.22v-4.2c0-0.13,0.04-0.24,0.13-0.33
	s0.2-0.14,0.32-0.14h0.23c0.09,0,0.18,0.03,0.26,0.08c0.08,0.05,0.13,0.13,0.17,0.21l1.6,3.98l1.6-3.98
	c0.04-0.08,0.1-0.15,0.17-0.21s0.16-0.08,0.26-0.08h0.23c0.13,0,0.23,0.05,0.32,0.14c0.09,0.09,0.13,0.2,0.13,0.33v4.2
	c0,0.17-0.13,0.31-0.3,0.32c0,0-0.01,0-0.01,0c-0.18,0-0.32-0.14-0.32-0.32c0,0,0,0,0,0v-3.99l-1.62,4.01
	c-0.08,0.18-0.25,0.3-0.45,0.29c-0.1,0-0.19-0.03-0.27-0.08c-0.08-0.05-0.14-0.13-0.18-0.21l-1.62-4.01v3.99
	c0,0.18-0.15,0.32-0.32,0.32C197.77,115.23,197.69,115.2,197.63,115.14z M204.42,115.1c-0.06-0.06-0.09-0.14-0.09-0.22v-4.27
	c0-0.09,0.03-0.17,0.09-0.23c0.06-0.06,0.14-0.1,0.22-0.1h1.66c0.5,0,0.89,0.12,1.16,0.35s0.41,0.54,0.41,0.93
	c0,0.27-0.06,0.5-0.19,0.68c-0.13,0.18-0.29,0.32-0.5,0.4c0.28,0.09,0.51,0.23,0.69,0.43s0.27,0.44,0.27,0.75
	c0,0.43-0.15,0.77-0.43,1.01c-0.29,0.24-0.75,0.37-1.37,0.37h-1.7C204.56,115.19,204.48,115.16,204.42,115.1z M206.14,112.41
	c0.42,0,0.71-0.07,0.88-0.21c0.17-0.14,0.25-0.34,0.25-0.59c0.01-0.21-0.1-0.41-0.27-0.53c-0.18-0.13-0.43-0.2-0.74-0.2h-1.29v1.53
	C204.97,112.41,206.14,112.41,206.14,112.41z M206.28,114.59c0.46,0,0.78-0.07,0.97-0.21c0.19-0.14,0.3-0.36,0.29-0.6
	c0-0.53-0.41-0.8-1.24-0.8h-1.32v1.61L206.28,114.59L206.28,114.59z M209.29,115.1c-0.06-0.06-0.09-0.14-0.09-0.22v-4.27
	c0-0.09,0.03-0.17,0.09-0.23c0.06-0.06,0.14-0.1,0.22-0.1h2.82c0.08,0,0.15,0.03,0.21,0.09c0.06,0.06,0.09,0.13,0.09,0.21
	c0,0.16-0.13,0.3-0.3,0.3c0,0,0,0-0.01,0h-2.5v1.55h2.24c0.08,0,0.16,0.03,0.21,0.09c0.06,0.06,0.09,0.13,0.09,0.21
	s-0.03,0.15-0.09,0.21c-0.06,0.06-0.13,0.09-0.21,0.08h-2.24v1.56h2.5c0.08,0,0.15,0.03,0.21,0.09c0.06,0.06,0.09,0.13,0.09,0.21
	c0,0.08-0.03,0.16-0.09,0.21c-0.06,0.06-0.13,0.09-0.21,0.08h-2.82C209.43,115.19,209.35,115.16,209.29,115.1L209.29,115.1z
	 M213.78,115.14c-0.06-0.06-0.09-0.14-0.09-0.22v-4.3c0-0.09,0.03-0.17,0.09-0.23c0.06-0.06,0.14-0.1,0.22-0.1h1.64
	c0.64,0,1.12,0.13,1.43,0.39c0.32,0.26,0.48,0.61,0.48,1.03c0.01,0.58-0.36,1.1-0.92,1.27c0.34,0.09,0.57,0.3,0.69,0.63
	s0.19,0.65,0.19,0.97v0.32c0,0.09-0.03,0.16-0.09,0.22c-0.06,0.06-0.14,0.09-0.22,0.09c-0.1,0-0.18-0.03-0.24-0.09
	s-0.09-0.13-0.09-0.23v-0.21c0-0.23-0.02-0.45-0.06-0.65s-0.14-0.38-0.3-0.54c-0.16-0.16-0.4-0.24-0.73-0.24h-1.46v1.63
	c0,0.18-0.15,0.32-0.32,0.32C213.92,115.23,213.84,115.19,213.78,115.14L213.78,115.14z M215.6,112.68c0.4,0,0.72-0.08,0.96-0.24
	c0.23-0.15,0.36-0.4,0.35-0.67c0-0.28-0.1-0.5-0.3-0.65s-0.55-0.22-1.04-0.22h-1.24v1.79L215.6,112.68L215.6,112.68z M158.97,139.99
	c-0.06-0.06-0.09-0.14-0.09-0.23v-4.2c0-0.13,0.04-0.24,0.13-0.33s0.2-0.14,0.32-0.14h0.23c0.09,0,0.18,0.03,0.26,0.08
	c0.08,0.05,0.13,0.13,0.17,0.21l1.6,3.98l1.6-3.98c0.04-0.08,0.1-0.15,0.17-0.21s0.16-0.09,0.26-0.09h0.23
	c0.13,0,0.23,0.05,0.32,0.14c0.09,0.09,0.13,0.2,0.13,0.33v4.2c0,0.17-0.13,0.31-0.3,0.32c0,0-0.01,0-0.01,0
	c-0.18,0-0.32-0.14-0.32-0.32c0,0,0,0,0,0v-3.99l-1.62,4.01c-0.08,0.18-0.25,0.3-0.45,0.29c-0.1,0-0.19-0.03-0.27-0.08
	c-0.08-0.05-0.14-0.13-0.18-0.21l-1.62-4.01v3.99c0,0.18-0.15,0.32-0.32,0.32C159.11,140.08,159.02,140.05,158.97,139.99
	L158.97,139.99z M165.76,139.95c-0.06-0.06-0.09-0.14-0.09-0.23v-4.27c0-0.09,0.03-0.17,0.09-0.23c0.06-0.06,0.14-0.1,0.23-0.1h2.82
	c0.08,0,0.15,0.03,0.21,0.09c0.06,0.06,0.09,0.13,0.09,0.21c0,0.16-0.13,0.3-0.3,0.3c0,0,0,0-0.01,0h-2.5v1.55h2.24
	c0.08,0,0.16,0.03,0.21,0.09c0.06,0.06,0.09,0.13,0.09,0.21s-0.03,0.15-0.09,0.21c-0.06,0.06-0.13,0.09-0.21,0.08h-2.24v1.56h2.5
	c0.08,0,0.15,0.03,0.21,0.09c0.06,0.06,0.09,0.13,0.09,0.21c0,0.09-0.03,0.15-0.09,0.21s-0.13,0.09-0.21,0.09h-2.82
	C165.89,140.05,165.81,140.01,165.76,139.95z M170.02,139.78c-0.06-0.02-0.11-0.06-0.14-0.12c-0.08-0.12-0.07-0.28,0.02-0.38
	c0.05-0.06,0.13-0.09,0.21-0.09c0.05,0,0.09,0.01,0.13,0.03c0.43,0.19,0.89,0.29,1.38,0.29c0.82,0,1.23-0.27,1.23-0.81
	c0-0.13-0.06-0.26-0.16-0.35c-0.11-0.1-0.25-0.17-0.39-0.22c-0.22-0.07-0.44-0.14-0.66-0.19c-0.38-0.1-0.69-0.19-0.92-0.29
	c-0.23-0.09-0.44-0.23-0.61-0.41c-0.17-0.18-0.25-0.43-0.25-0.73c0-0.27,0.07-0.51,0.21-0.73c0.14-0.22,0.35-0.39,0.62-0.52
	c0.27-0.13,0.6-0.19,0.99-0.19c0.51,0,0.98,0.08,1.4,0.23c0.13,0.05,0.2,0.14,0.2,0.28c0,0.08-0.03,0.15-0.08,0.21
	c-0.05,0.06-0.13,0.09-0.2,0.09c-0.04,0-0.08-0.01-0.11-0.03c-0.36-0.13-0.75-0.19-1.13-0.19c-0.37,0-0.67,0.07-0.9,0.21
	c-0.23,0.14-0.35,0.34-0.35,0.59c0,0.17,0.05,0.31,0.16,0.41c0.11,0.1,0.25,0.19,0.41,0.25c0.17,0.06,0.39,0.12,0.68,0.19
	c0.37,0.09,0.67,0.18,0.9,0.27c0.23,0.09,0.42,0.23,0.58,0.41c0.16,0.19,0.24,0.44,0.24,0.76c0,0.26-0.07,0.5-0.22,0.71
	c-0.16,0.22-0.38,0.39-0.63,0.49c-0.3,0.12-0.62,0.18-0.94,0.18C171.12,140.12,170.55,140,170.02,139.78L170.02,139.78z
	 M174.35,139.78c-0.06-0.02-0.11-0.06-0.14-0.12c-0.08-0.12-0.07-0.28,0.02-0.38c0.05-0.06,0.13-0.09,0.21-0.09
	c0.05,0,0.09,0.01,0.13,0.03c0.43,0.19,0.89,0.29,1.38,0.29c0.82,0,1.23-0.27,1.23-0.81c0-0.14-0.05-0.26-0.16-0.35
	c-0.11-0.09-0.24-0.17-0.39-0.22c-0.22-0.07-0.44-0.14-0.66-0.19c-0.38-0.1-0.69-0.19-0.92-0.29c-0.23-0.09-0.44-0.23-0.61-0.41
	c-0.17-0.18-0.25-0.43-0.25-0.73c0-0.27,0.07-0.51,0.21-0.73c0.14-0.22,0.35-0.39,0.62-0.52c0.27-0.13,0.6-0.19,0.99-0.19
	c0.51,0,0.98,0.08,1.4,0.23c0.13,0.05,0.2,0.14,0.2,0.28c0,0.08-0.03,0.15-0.08,0.21c-0.05,0.06-0.13,0.09-0.2,0.09
	c-0.04,0-0.08-0.01-0.11-0.03c-0.36-0.13-0.75-0.19-1.13-0.19c-0.37,0-0.67,0.07-0.9,0.21c-0.23,0.14-0.35,0.34-0.35,0.59
	c0,0.17,0.05,0.31,0.16,0.41c0.11,0.1,0.25,0.19,0.41,0.25c0.17,0.06,0.39,0.12,0.68,0.19c0.37,0.09,0.67,0.18,0.9,0.27
	c0.23,0.09,0.42,0.23,0.58,0.41c0.16,0.19,0.24,0.44,0.24,0.76c0,0.26-0.07,0.5-0.22,0.71c-0.16,0.22-0.38,0.39-0.63,0.49
	c-0.3,0.12-0.62,0.18-0.94,0.18C175.45,140.12,174.88,140,174.35,139.78L174.35,139.78z M178.57,139.99
	c-0.06-0.06-0.09-0.14-0.09-0.23c0-0.04,0.01-0.08,0.04-0.14l1.79-4.23c0.04-0.08,0.09-0.15,0.16-0.21
	c0.07-0.05,0.16-0.08,0.25-0.08h0.07c0.1,0,0.18,0.03,0.25,0.08c0.07,0.06,0.12,0.13,0.16,0.21l1.79,4.23
	c0.02,0.04,0.03,0.09,0.04,0.14c0,0.09-0.03,0.16-0.09,0.23c-0.06,0.06-0.14,0.1-0.23,0.09c-0.06,0-0.13-0.02-0.18-0.05
	c-0.05-0.04-0.1-0.09-0.12-0.14l-0.46-1.1h-2.39l-0.46,1.1c-0.07,0.17-0.27,0.24-0.44,0.17
	C178.62,140.03,178.59,140.01,178.57,139.99z M179.8,138.2h1.9l-0.95-2.29C180.75,135.92,179.8,138.2,179.8,138.2z M184.84,139.79
	c-0.37-0.21-0.67-0.52-0.87-0.89c-0.21-0.4-0.32-0.85-0.31-1.3c0-0.5,0.11-0.94,0.32-1.32c0.22-0.38,0.51-0.68,0.88-0.89
	c0.37-0.21,0.79-0.32,1.24-0.32c0.37,0,0.68,0.04,0.96,0.13c0.27,0.09,0.54,0.21,0.79,0.37c0.04,0.02,0.07,0.05,0.1,0.1
	c0.03,0.05,0.04,0.1,0.04,0.15c0,0.16-0.12,0.29-0.27,0.29c-0.01,0-0.01,0-0.02,0c-0.05,0-0.1-0.01-0.15-0.04
	c-0.22-0.13-0.44-0.23-0.66-0.29c-0.22-0.07-0.46-0.1-0.72-0.1c-0.36,0-0.68,0.07-0.96,0.23c-0.29,0.15-0.51,0.37-0.67,0.66
	c-0.16,0.29-0.24,0.63-0.24,1.03c0,0.37,0.08,0.69,0.23,0.98c0.15,0.29,0.37,0.52,0.66,0.68c0.29,0.17,0.63,0.25,1.02,0.25
	c0.44,0,0.85-0.1,1.23-0.31v-1.27h-1.16c-0.08,0-0.15-0.03-0.2-0.09c-0.06-0.06-0.08-0.12-0.08-0.2s0.03-0.15,0.08-0.2
	s0.12-0.09,0.2-0.09h1.39c0.09,0,0.17,0.03,0.24,0.1c0.06,0.06,0.1,0.15,0.1,0.24v1.6c0.01,0.19-0.1,0.36-0.27,0.44
	c-0.5,0.26-1.05,0.39-1.61,0.39C185.64,140.11,185.21,140.01,184.84,139.79L184.84,139.79z M189.37,139.95
	c-0.06-0.06-0.09-0.14-0.09-0.23v-4.27c0-0.09,0.03-0.17,0.09-0.23c0.06-0.06,0.14-0.1,0.22-0.1h2.82c0.08,0,0.15,0.03,0.21,0.09
	c0.06,0.06,0.09,0.13,0.09,0.21c0,0.16-0.13,0.3-0.3,0.3c0,0,0,0-0.01,0h-2.5v1.55h2.24c0.09,0,0.16,0.03,0.21,0.09
	s0.09,0.13,0.09,0.21s-0.03,0.15-0.09,0.21c-0.06,0.06-0.13,0.09-0.21,0.08h-2.24v1.56h2.5c0.08,0,0.16,0.03,0.21,0.09
	s0.09,0.13,0.09,0.21c0,0.09-0.03,0.15-0.09,0.21s-0.13,0.09-0.21,0.09h-2.82C189.51,140.05,189.43,140.01,189.37,139.95
	L189.37,139.95z"/>
<path class="st6" d="M31.88,156.44c0,0,0-0.01,0-0.01c0-3.95,3.21-7.15,7.16-7.15h80.01c3.96,0,7.2,3.2,7.2,7.16v51.74
	c0,1.11-0.26,2.21-0.76,3.2c-0.38,0.76-0.89,1.41-1.48,2c-1.27,1.24-3.03,1.96-4.96,1.96H39.04c0,0-0.01,0-0.01,0
	c-3.95,0-7.15-3.21-7.15-7.16L31.88,156.44L31.88,156.44z"/>
<path class="st8" d="M31.88,156.44c0,0,0-0.01,0-0.01c0-3.95,3.21-7.15,7.16-7.15h80.01c3.96,0,7.2,3.2,7.2,7.16v51.74
	c0,1.11-0.26,2.21-0.76,3.2c-0.23,0.45-0.51,0.88-0.83,1.27c-0.21,0.25-0.43,0.49-0.65,0.72c-0.79,0.79-1.79,1.34-2.93,1.65
	c-0.66,0.21-1.34,0.32-2.03,0.31H39.04c-0.69,0-1.37-0.09-2.03-0.27c-1.41-0.41-2.62-1.27-3.55-2.38c-1.03-1.28-1.59-2.87-1.58-4.51
	L31.88,156.44L31.88,156.44z"/>
<path class="st9" d="M48.7,162.29l11.6,8.64c6.33,4.78,12.57,9.79,18.76,14.84c6.2-5.05,12.43-10.06,18.8-14.84l11.6-8.64
	c3.93-2.8,7.82-5.65,11.77-8.23c-3.51,3.63-7.16,6.99-10.74,10.43l-11.02,9.97c-6.71,6.02-13.53,11.76-20.42,17.46
	c-6.85-5.7-13.7-11.44-20.42-17.46l-10.98-9.97c-3.58-3.45-7.26-6.8-10.77-10.43C40.89,156.64,44.74,159.49,48.7,162.29z"/>
<path class="st9" d="M88.62,183.91c0.62-0.52,1.24-1.03,1.86-1.58c8.61,7.02,17.04,14.49,25.44,22.1c2.93,2.73,5.85,5.47,8.74,8.23
	c-0.21,0.25-0.43,0.49-0.65,0.72c-0.79,0.79-1.79,1.34-2.93,1.65c-2.27-2.03-4.54-4.06-6.82-6.13
	C105.59,200.85,97.02,192.66,88.62,183.91L88.62,183.91z M42.21,204.43c8.4-7.61,16.83-15.08,25.44-22.1
	c1.08,0.91,2.31,1.97,1.86,1.58c-8.4,8.74-16.97,16.94-25.65,24.99c-2.27,2.07-4.54,4.13-6.85,6.16c-1.41-0.41-2.62-1.27-3.55-2.38
	C36.36,209.91,39.27,207.16,42.21,204.43z"/>
<path class="st10" d="M108.98,181.49c2.36-0.4,9.52,6.67,11.77,9.09c0.72,0.78,1.25,1.72,1.47,2.76c0.17,0.8,0.16,1.65-0.41,2.08
	c-3.43,2.56-15.59-6.25-17.15-8.63c-1.56-2.38,4.02-5.19,4.14-5.18"/>
<path class="st11" d="M114.66,184.37l0.32-0.52l1.48-2.52l-5.51-3.6c-0.06,0.06-1.49,2.07-2.51,3.77c-0.41,0.68-0.7,1.35-0.7,1.88
	c0.01,1.84,7.44,5.82,8.81,5.11C117.93,187.78,114.66,184.37,114.66,184.37z"/>
<path class="st12" d="M116.46,181.33l-5.51-3.6c-0.06,0.06-1.49,2.07-2.51,3.77c0.83-0.21,1.74-0.15,2.57,0.1
	c1.15,0.35,2.19,1.01,3.19,1.68c0.27,0.18,0.53,0.36,0.77,0.57L116.46,181.33L116.46,181.33z"/>
<path class="st10" d="M152.5,179.67c0.91-2.21,10.69-4.56,13.93-5.19c1.04-0.2,2.12-0.15,3.12,0.21c0.77,0.28,1.49,0.73,1.55,1.45
	c0.37,4.26-13.54,9.94-16.38,10.01s-2.29-6.15-2.21-6.25"/>
<path class="st11" d="M162.45,176.93c0.12-1.54-4.5-0.57-4.5-0.57l-0.28-0.54l-1.36-2.59l-5.96,2.77c0.02,0.08,0.97,2.35,1.88,4.12
	c0.36,0.71,0.78,1.31,1.23,1.59C155.02,182.67,162.33,178.46,162.45,176.93L162.45,176.93z"/>
<path class="st12" d="M150.35,176c0.02,0.08,0.97,2.35,1.88,4.12c0.26-0.82,0.79-1.56,1.44-2.13c0.9-0.8,2.01-1.32,3.11-1.82
	c0.29-0.13,0.59-0.26,0.89-0.35l-1.36-2.59L150.35,176z"/>
<path class="st13" d="M91.13,149.2c6.08-2.75,27.6-12.25,25.27-8.14c-0.41,0.73-0.84,1.41-1.27,2.04c-2.25,3.28-4.61,5.21-5.87,6.09
	L91.13,149.2L91.13,149.2z M109.13,179.76c0,0,0.96-10.74,2.84-21.35c0.57-3.18,1.21-6.34,1.95-9.21c0.27-1.05,0.55-2.07,0.84-3.02
	c0.39-1.28,0.79-2.45,1.22-3.5c0.63-1.53,1.3-2.78,2.01-3.64c5.87-7.04,11.63,7.73,11.63,7.73l-2.36,6.48l-0.49,1.33l-1.39,3.83
	l-1.31,3.6l-7.24,19.9c0,0-0.43,0.04-1.09,0.04c-0.75-0.01-1.8-0.08-2.83-0.37c-0.96-0.27-2-0.79-2.75-1.2
	C109.55,180.03,109.13,179.76,109.13,179.76L109.13,179.76z"/>
<path class="st5" d="M70.49,147.45c-2.73-6.91-0.56-16.4,1.3-22.23c0.28-0.89,0.56-1.68,0.81-2.38c0.64-1.78,1.12-2.86,1.12-2.86
	l10.43,0.75l0.9,0.06l5.64,0.4l2.08,0.15l1.4,0.1l1.02,0.07l0.21,0.01l1.22,0.09l0.73,1.18c0,0,22.83-1.24,26.36-0.13
	c0.84,0.27,1.84,1,2.97,2.1c0.15,0.14,0.3,0.29,0.44,0.44c9.9,10.19,28.62,46.38,30.24,49.54c0.05,0.09,0.09,0.17,0.12,0.22
	c0.93,1.8-6.28,3.01-8.65,3.31c-1.85,0.23-14.92-15.22-20.55-21.98c0-0.02-0.02-0.03-0.04-0.04c-0.35-0.39-0.67-0.76-0.98-1.11
	c-0.17-0.19-0.33-0.39-0.48-0.57c-0.38-0.47-0.72-0.9-0.99-1.3c-0.02-0.03-0.03-0.05-0.05-0.06c0,0-0.01-0.01-0.01-0.01h-0.01
	c-0.31-0.45-0.56-0.85-0.73-1.2c-0.47-0.96-0.88-1.9-1.26-2.81c-1.89-4.47-3.04-8.11-5.27-7.65c-0.35,0.07-1.22,0.5-2.48,1.13
	c-0.27,0.13-0.55,0.27-0.86,0.43c-3.69,1.83-9.83,4.76-16.25,6.09H72.17C71.4,148.85,70.82,148.27,70.49,147.45L70.49,147.45z"/>
<path class="st5" d="M125.74,153.21L125.74,153.21c0,0.01,0.01,0.01,0.01,0.01L125.74,153.21L125.74,153.21z"/>
<path class="st13" d="M109.13,179.76c0,0,0.96-10.74,2.84-21.35c0.57-3.18,1.21-6.34,1.95-9.21c0.27-1.05,0.55-2.07,0.84-3.02
	l1.78,3.02l5.43,9.21l2.12,3.6l-7.24,19.9c0,0-0.43,0.04-1.09,0.04c-0.75-0.01-1.8-0.08-2.83-0.37c-0.96-0.27-2-0.79-2.75-1.2
	C109.55,180.03,109.13,179.76,109.13,179.76L109.13,179.76z"/>
<path class="st11" d="M128.39,89.59c0.25-0.26,0.48-0.51,0.71-0.75c1.24-1.26,2.25-2.7,3.16-4.21c0.24-0.4,0.48-0.82,0.75-1.22
	c0.12-0.19,0.25-0.36,0.4-0.54c0.61-0.72,0.96-1.58,1.43-2.38c0.33-0.56,0.72-1.08,1.15-1.56c0.55-0.6,1.17-1.15,1.79-1.68
	c0.24-0.21,0.55-0.35,0.83-0.5c0.7-0.37,1.22-0.94,1.76-1.5c0.36-0.37,0.73-0.73,1.13-1.05c0.48-0.38,0.92-0.18,1,0.42
	c0.1,0.73-0.23,1.28-0.76,1.73c-0.51,0.44-1.06,0.84-1.57,1.27c-0.19,0.16-0.32,0.38-0.48,0.56c0.02,0.03,0.05,0.07,0.07,0.1
	c0.07,0.01,0.15,0.03,0.22,0.01c0.56-0.18,1.12-0.36,1.68-0.55c0.35-0.11,0.69-0.23,1.04-0.32c0.21-0.05,0.22-0.17,0.21-0.35
	c-0.03-0.45,0.12-0.67,0.56-0.58c0.68,0.14,1.2-0.1,1.74-0.46c0.5-0.34,1.03-0.62,1.59-0.85c0.35-0.15,0.76-0.18,1.14-0.21
	c0.14-0.01,0.35,0.15,0.39,0.28c0.04,0.09-0.11,0.3-0.23,0.39c-0.78,0.63-1.58,1.25-2.35,1.89c-0.07,0.06-0.03,0.31,0.03,0.44
	c0.12,0.23,0.31,0.43,0.44,0.67c0.2,0.36,0.12,0.69-0.24,0.89c-0.29,0.16-0.47,0.3-0.38,0.71c0.09,0.38-0.31,0.56-0.56,0.77
	c-0.14,0.12-0.32,0.18-0.46,0.29c-0.1,0.06-0.17,0.16-0.2,0.27c-0.09,0.32-0.22,0.59-0.57,0.72c-0.43,0.16-0.85,0.34-1.25,0.55
	c-0.32,0.17-0.6,0.39-0.91,0.56c-0.23,0.13-0.47,0.27-0.72,0.34c-1.17,0.28-2.3,0.74-3.33,1.36c-0.44,0.26-0.76,0.68-0.9,1.17
	c-0.05,0.17-0.11,0.33-0.19,0.48c-0.16,0.36-0.39,0.68-0.62,1.01c-0.51,0.75-0.98,1.54-1.46,2.31c-0.3,0.48-0.59,0.96-0.88,1.44
	c-0.24,0.4-0.49,0.8-0.74,1.22C131.3,91.68,129.85,90.63,128.39,89.59L128.39,89.59z"/>
<path class="st12" d="M128.39,89.59c0.25-0.26,0.48-0.51,0.71-0.75c1.24-1.26,2.25-2.7,3.16-4.21c0.24-0.4,0.48-0.82,0.75-1.22
	c0.09,0.3,0.2,0.59,0.35,0.88c0.57,1.14,1.6,2.06,2.83,2.39c0.1,0.02,0.19,0.05,0.29,0.06c-0.16,0.36-0.39,0.68-0.62,1.01
	c-0.51,0.75-0.98,1.54-1.46,2.31c-0.3,0.48-0.59,0.96-0.88,1.44c-0.24,0.4-0.49,0.8-0.74,1.22
	C131.3,91.68,129.85,90.63,128.39,89.59L128.39,89.59z"/>
<path class="st14" d="M78.18,82.62c1.09-0.54,2.14-1.14,3.16-1.8c5.27-3.42,9.46-8.26,12.1-13.96L79.89,51.71
	c-1.69,11.21-6.34,21.96-13.3,30.91L78.18,82.62L78.18,82.62z"/>
<path class="st14" d="M86.89,61.64l13.4-4.96v1.47h3.53c-0.04,6.09,2.61,12.18,7.2,16.19c-0.95,0.38-1.88,0.82-2.81,1.26
	c-0.19-0.14-0.38-0.28-0.55-0.43c-1.28-1.04-2.32-2.33-3.36-3.61c0.43,1.72,0.97,3.4,1.63,5.05c-0.55,0.22-1.12,0.42-1.7,0.58
	c-2.57,0.74-5.34,0.73-7.89-0.06c-2.54-0.8-4.84-2.4-6.44-4.54C87.59,69.5,86.86,65.49,86.89,61.64L86.89,61.64z"/>
<path class="st14" d="M77.63,62.89h26.66c-0.2-1.03-0.31-2.07-0.33-3.12c-0.17-7.58-0.64-15.75-8.57-17.43
	c-7.93-1.68-12.8,3.01-14.36,6.6c-0.71,1.63-1.29,3.36-1.79,4.88l-0.01,0.07C78.92,57,78.63,59.96,77.63,62.89z"/>
<path class="st11" d="M84.93,58.32c-2.22,0.25-1.94-2-1.79-2.84c0.15-0.87-0.05-5.11,3.93-8.99s12.01,0.25,12.32,1.07
	c0.31,0.82,0.21,10.32-1.02,14.97c-1.23,4.65-5.67,4.14-5.67,4.14l-0.57,7.36l-7.73-0.47C84.94,65.64,84.97,58.85,84.93,58.32
	L84.93,58.32z"/>
<path class="st5" d="M96.68,54.33c-0.06-0.01-0.11-0.03-0.14-0.08c0,0,0,0,0,0c-0.26-0.31-0.72-0.36-1.03-0.11l0,0
	c-0.09,0.07-0.23,0.06-0.3-0.03s-0.06-0.23,0.03-0.3c0.07-0.06,0.15-0.11,0.24-0.15c0.48-0.23,1.06-0.1,1.4,0.32
	c0.04,0.04,0.05,0.1,0.05,0.16C96.9,54.26,96.79,54.35,96.68,54.33L96.68,54.33z M89.29,54.05c-0.09-0.08-0.1-0.21-0.02-0.3
	c0.41-0.49,1.14-0.55,1.63-0.14c0.09,0.08,0.1,0.21,0.03,0.3c-0.08,0.09-0.21,0.1-0.3,0.03c0,0,0,0,0,0
	c-0.31-0.26-0.77-0.22-1.03,0.09c-0.04,0.04-0.09,0.07-0.14,0.08C89.39,54.11,89.34,54.09,89.29,54.05z M92.61,59.62
	c-0.43-0.05-0.77-0.19-0.79-0.2c-0.01,0-0.01-0.01-0.02-0.01c-0.11-0.05-0.15-0.18-0.1-0.29c0.05-0.11,0.18-0.15,0.29-0.1
	c0.01,0,0.67,0.28,1.21,0.13c0.32-0.24-0.12-2.81-0.28-3.39c-0.02-0.1,0.03-0.21,0.13-0.25c0.11-0.04,0.23,0.01,0.28,0.12
	c0.01,0.03,0.69,2.92,0.27,3.69c-0.05,0.11-0.15,0.2-0.27,0.23C93.09,59.63,92.85,59.65,92.61,59.62L92.61,59.62z"/>
<path class="st12" d="M91.06,61.17c0,0.93,0.63,1.72,1.49,1.81s1.63-0.56,1.83-1.47L91.06,61.17z"/>
<path class="st5" d="M90.18,55.61c0.2-0.01,0.37,0.21,0.39,0.51c0.02,0.29-0.13,0.54-0.33,0.55c-0.2,0.01-0.37-0.22-0.38-0.51
	C89.84,55.86,89.99,55.62,90.18,55.61z M95.76,56.47c0.03-0.29,0.21-0.51,0.41-0.49c0.2,0.02,0.33,0.27,0.3,0.56
	c-0.03,0.29-0.21,0.51-0.41,0.49C95.86,57.01,95.73,56.76,95.76,56.47L95.76,56.47z"/>
<path class="st14" d="M95.69,48.08c0.51-1.15,0.42-2.12,1.5-2.9c-0.77-1.48-2.93-1.9-4.43-1.62c-1.65,0.3-3.78,0.46-5.1,1.5
	c-1.81,1.42-2.83,3.85-3.94,5.86s-1.57,4.47-0.85,6.65c0.01-1.38,0.93-2.64,2.08-3.4s2.52-1.14,3.86-1.47s2.71-0.65,3.92-1.33
	C94.04,50.6,95.07,49.46,95.69,48.08z"/>
<path class="st14" d="M100.98,49.6c-0.06-0.93-0.21-1.97-0.92-2.58c-0.72-0.61-2.65-2.1-3.59-2.04l-1.32,2.97
	c0.53,0.15,0.9,0.64,1.13,1.15c0.22,0.51,0.35,1.06,0.62,1.54c0.44,0.77,1.2,1.28,1.82,1.9c1.05,1.06,1.71,2.45,1.85,3.94
	C100.98,54.22,101.11,51.91,100.98,49.6z"/>
<path class="st12" d="M92.7,66.67l-0.34,1.97c-3.77-0.22-4.06-4.25-4.06-4.25C89.55,66.59,92.7,66.67,92.7,66.67z"/>
<path class="st15" d="M73.29,74.66c1.84-0.66,4.12-1.42,5.81-1.75c0.29-0.06,0.56-0.11,0.8-0.14c0.13-0.02,0.24-0.06,0.36-0.11
	c0.01-0.01,0.08-0.01,0.21,0c1.67,0.08,13,1.23,13,1.23s0.07,0.01,0.22,0.04c0.9,0.16,1.78,0.37,2.66,0.63
	c3.04,0.86,7.69,2.7,9.94,6.19c0.36,0.57,0.75,1.26,1.14,2.03l0.21,20.33c-1.92-2.29-3.63-2.58-4.07-3.17l-0.13-0.18
	c0,0-0.86,8.32-0.66,14.52c0.07,2.12,0.27,4.17,0.66,5.86c1.55,6.68-28.21,2.77-30.15,0c0,0,2.53-13.99,0.88-22.87
	c-0.09-0.48-0.19-0.95-0.31-1.4c-0.16-0.64-0.35-1.24-0.57-1.79c0,0-0.07,0.12-0.21,0.34c-0.52-4.43-1.91-14.58-2.52-18.32
	C71.39,75.5,72.32,75.01,73.29,74.66z"/>
<path class="st16" d="M103.45,100.3c-0.2-0.07-0.3-0.28-0.24-0.47c1.26-3.82,0.5-7-2.44-10.32c-0.01-0.01-0.01-0.01-0.02-0.02
	c-0.13-0.16-0.11-0.4,0.05-0.53c0.16-0.13,0.4-0.11,0.53,0.05c3.15,3.54,3.95,6.95,2.6,11.05c-0.05,0.15-0.19,0.26-0.36,0.26
	C103.53,100.32,103.49,100.31,103.45,100.3z M73.29,120.14c0,0,2.53-13.99,0.88-22.87c-0.09-0.48-0.19-0.95-0.31-1.4l0.33-0.92
	c2.5,7.97,8.27,14.87,15.68,18.74c2.34,1.22,4.9,2.17,7.54,2.18c1.89,0.01,3.83-0.51,5.36-1.58c0.07,2.11,0.26,4.17,0.66,5.86
	C104.99,126.82,75.23,122.92,73.29,120.14L73.29,120.14z"/>
<path class="st15" d="M106.58,102l0.93-18.97l10.54,17.12l13.32-15.27l4.55,3.54c0,0-12.31,24.12-16.62,23.44
	C115.01,111.19,106.58,102,106.58,102L106.58,102z"/>
<path class="st11" d="M91.64,119.53c0.21,0.36,0.06,0.64-0.35,0.7c-0.12,0.01-0.26,0.02-0.35,0.09c-0.53,0.37-1.09,0.64-1.75,0.53
	c-0.32-0.05-0.47,0.08-0.58,0.32c-0.1,0.26-0.3,0.35-0.56,0.36c-0.22,0.01-0.43-0.01-0.65,0.03c-0.29,0.05-0.66,0.04-0.83,0.22
	c-0.5,0.49-1.19,0.49-1.69,0.27c-0.61-0.26-1.18-0.6-1.76-0.91c-0.58-0.32-1.16-0.64-1.73-0.98c-0.58-0.34-1.19-0.65-1.71-1.07
	c-0.52-0.41-0.97-0.91-1.45-1.37c-1.52-0.48-3.04-0.99-4.55-1.52c1.07-1.83,2.2-3.62,3.39-5.38l2.33,1.12
	c0.03,0.01,0.06,0.02,0.09,0.03c0.47,0.15,0.93,0.17,1.41,0.09c0.51-0.08,1.03-0.17,1.54-0.21c0.88-0.06,1.76-0.25,2.65-0.03
	c0.84,0.22,1.77-0.02,2.55,0.56c0.23,0.16,0.56,0.18,0.83,0.29c0.15,0.06,0.36,0.15,0.38,0.26c0.02,0.14-0.08,0.35-0.19,0.45
	c-0.44,0.37-0.96,0.62-1.54,0.44c-0.48-0.15-0.96-0.26-1.46-0.19c-0.17,0.02-0.34,0.07-0.5,0.1c0.49,0.58,0.99,1.15,1.48,1.72
	c0.43,0.5,0.86,1,1.29,1.5c0.19,0.22,0.32,0.52,0.56,0.7c0.52,0.39,1.08,0.73,1.63,1.08c0.07,0.04,0.18,0.04,0.27,0.05
	C90.9,118.86,91.35,119.06,91.64,119.53L91.64,119.53z"/>
<path class="st15" d="M70.56,76.17c0.89,5.22,1.72,11.52,2.52,18.32l-9.69,7l15.71,9.65l-2.34,7.21c0,0-26.93-12.6-28.96-16.26
	C45.78,98.44,69.96,76.48,70.56,76.17z"/>
<path class="st16" d="M76.77,118.73c-0.06,0-0.11-0.01-0.16-0.04c-1.1-0.52-27.07-12.69-29.13-16.42c-0.33-0.6-1.33-2.4,9.11-13.28
	c0.14-0.15,0.38-0.15,0.53-0.01c0.15,0.14,0.15,0.38,0.01,0.53c-9.08,9.45-9.31,11.82-8.99,12.39c1.56,2.81,19.51,11.76,28.79,16.1
	c0.13,0.06,0.22,0.2,0.22,0.34C77.15,118.56,76.98,118.73,76.77,118.73L76.77,118.73z"/>
<path class="st16" d="M79.11,111.51c-0.07,0-0.14-0.02-0.2-0.06L63.2,101.8c-0.04-0.03-0.08-0.06-0.11-0.1
	c-0.12-0.17-0.08-0.4,0.08-0.53l9.69-7c0.17-0.12,0.4-0.08,0.52,0.08c0.12,0.17,0.08,0.4-0.08,0.52l-9.23,6.67l15.23,9.36
	c0.11,0.07,0.18,0.19,0.18,0.32C79.48,111.34,79.32,111.51,79.11,111.51L79.11,111.51z"/>
<path class="st11" d="M80.19,73.96c0-0.45,0.1-0.88,0.28-1.3c1.67,0.08,13,1.23,13,1.23s0.07,0.01,0.22,0.04
	c0.9,0.16,1.78,0.37,2.66,0.63c-0.48,2.47-3.93,8.91-8.08,8.91C83.8,83.47,80.2,76.72,80.19,73.96L80.19,73.96z"/>
<path class="st12" d="M80.19,73.96c0-0.45,0.1-0.88,0.28-1.3c0.14,0.01,0.34,0.02,0.6,0.05c-0.03,0.18-0.05,0.37-0.05,0.56
	c0,2.76,3.6,9.51,8.07,9.51c1.11,0,2.17-0.46,3.13-1.19c-1.17,1.11-2.52,1.88-3.96,1.88C83.8,83.47,80.2,76.72,80.19,73.96
	L80.19,73.96z"/>
</svg>
