<?xml version="1.0" encoding="utf-8"?>
<!-- Generator: Adobe Illustrator 27.1.0, SVG Export Plug-In . SVG Version: 6.00 Build 0)  -->
<svg version="1.1" id="Layer_1" xmlns="http://www.w3.org/2000/svg" xmlns:xlink="http://www.w3.org/1999/xlink" x="0px" y="0px"
	 viewBox="0 0 1366 256" style="enable-background:new 0 0 1366 256;" xml:space="preserve">
<style type="text/css">
	.st0{fill:#4F9B7E;}
	.st1{fill:#BAF7DE;}
	.st2{fill:#DAF7EA;}
	.st3{fill:#FFFFFF;}
	.st4{font-family:'MyriadPro-Semibold';}
	.st5{font-size:28.4297px;}
</style>
<rect class="st0" width="1366" height="140"/>
<rect y="140" class="st1" width="1366" height="58"/>
<rect y="198" class="st2" width="1366" height="58"/>
<text transform="matrix(1 0 0 1 24.7812 78.5249)" class="st3 st4 st5">SI No</text>
<text transform="matrix(1 0 0 1 169.5898 77.5249)" class="st3 st4 st5">Year</text>
<text transform="matrix(1 0 0 1 316.1128 64.2769)"><tspan x="0" y="0" class="st3 st4 st5">Carried forward from</tspan><tspan x="0" y="34.1" class="st3 st4 st5">   the previous year</tspan></text>
<text transform="matrix(1 0 0 1 634.0869 64.2769)"><tspan x="0" y="0" class="st3 st4 st5">Received during </tspan><tspan x="0" y="34.1" class="st3 st4 st5">        the year</tspan></text>
<text transform="matrix(1 0 0 1 872.6025 64.0581)"><tspan x="0" y="0" class="st3 st4 st5">Resolved during </tspan><tspan x="0" y="34.1" class="st3 st4 st5">        the year</tspan></text>
<text transform="matrix(1 0 0 1 1118.3945 64.0581)"><tspan x="0" y="0" class="st3 st4 st5">Pending at the end </tspan><tspan x="0" y="34.1" class="st3 st4 st5">       of the year</tspan></text>
<text transform="matrix(1 0 0 1 43.772 179.6431)" class="st4 st5">1</text>
<text transform="matrix(1 0 0 1 181.772 179.6431)" class="st4 st5">2021-2022</text>
<text transform="matrix(1 0 0 1 182.772 240.6431)" class="st4 st5">2022-2023</text>
<text transform="matrix(1 0 0 1 43.772 240.6431)" class="st4 st5">2</text>
<text transform="matrix(1 0 0 1 455.772 179.6431)" class="st4 st5">0</text>
<text transform="matrix(1 0 0 1 456.772 240.6431)" class="st4 st5">0</text>
<text transform="matrix(1 0 0 1 738.772 180.6431)" class="st4 st5">0</text>
<text transform="matrix(1 0 0 1 739.772 241.6431)" class="st4 st5">0</text>
<text transform="matrix(1 0 0 1 973.772 180.6431)" class="st4 st5">0</text>
<text transform="matrix(1 0 0 1 974.772 241.6431)" class="st4 st5">0</text>
<text transform="matrix(1 0 0 1 1219.772 179.6431)" class="st4 st5">0</text>
<text transform="matrix(1 0 0 1 1220.772 240.6431)" class="st4 st5">0</text>
</svg>
