<svg xmlns="http://www.w3.org/2000/svg" viewBox="0 0 160 135" id="businessmen">
    <path d="m84.122 88.484.052-.065v-.007a.808.808 0 0 0 .143-.299 1.35 1.35 0 0 0 .039-.215c0-.019.006-.032.006-.052a.9.9 0 0 0-.059-.306.76.76 0 0 0-.124-.254c-.007-.013-.02-.026-.026-.039-.006-.006-.019-.013-.026-.026a1.052 1.052 0 0 0-.143-.137c-.007-.006-.013-.019-.026-.026-.006-.006-.013-.013-.026-.013-.007-.006-.007-.013-.013-.013l-2.687-2.438c-.818.055-1.64.056-2.458.001l-2.691 2.437c-.006 0-.013.007-.02.013-.006.006-.013.006-.02.013-.013.007-.02.02-.026.026-.052.046-.104.091-.15.144l-.02.019c-.006.013-.013.026-.026.033-.013.019-.019.033-.033.052-.013.026-.033.052-.046.078-.006.007-.006.02-.006.026a1.217 1.217 0 0 0-.078.222c-.013.078-.02.163-.013.241v.039c.013.078.026.163.052.234v.007a.86.86 0 0 0 .104.202c.006.013.013.019.019.032.006 0 .006.007.006.007l.052.072 1.974 4.527-3.159 11.36 1.244 2.554 4.064 8.325 4.051-8.331 1.244-2.553-3.152-11.354 1.978-4.536zM145.671 82.703l-8.297-2.615-1.838-4.716c1.376-1.514 1.389-2.352 1.92-4.377.118-.442 1.216-3.775 1.305-4.109 1.108-.409 2.449-2.591 3.271-4.108.939-1.734.957-3.889-.151-5.521a5.692 5.692 0 0 0-.387-.506c-.059-.069-.118-.128-.177-.187.236-1.062.354-2.153.364-3.254v-.088c-.088-4.601-1.995-8.877-5.289-11.973a3.446 3.446 0 0 0-1.258-2.005 16.794 16.794 0 0 0-10.194-3.48h-1.416c-2.949 0-5.593 1.239-7.923 2.772a3.493 3.493 0 0 0-2.271.718c-3.814 2.939-6.439 8.552-6.537 14.057.01 1.101.128 2.182.364 3.244-.059.069-.118.128-.177.197-.14.163-.269.332-.388.508-1.109 1.635-1.09 3.794-.145 5.53.824 1.514 2.166 3.689 3.266 4.098.088.334 1.187 3.677 1.305 4.119.531 2.015.543 2.853 1.92 4.367L111.1 80.09l-2.947.929c1.382.5 2.691 1.181 3.897 2.026.669.469 1.309.983 1.907 1.549.218.192.427.4.624.622a17.15 17.15 0 0 1 2.384 3.143v-4.604l.004-.009 1.72-3.47a12.536 12.536 0 0 0 5.544 1.298 12.56 12.56 0 0 0 5.554-1.298l1.72 3.47.003.007v16.955l-7.274 15.121-4.86-10.105v10.865c0 .138-.024.271-.032.408a6.878 6.878 0 0 1-2.454 4.864l6.183 2.219a3.35 3.35 0 0 0 1.16.206c.393 0 .786-.069 1.17-.206l27.318-9.811a3.427 3.427 0 0 0 2.281-3.234V94.509c-.002-5.652-3.914-10.587-9.331-11.806zm-24.173-8.709-1.927-1.042a5.903 5.903 0 0 1-2.9-3.696c-.688-2.644-.806-3.136-.816-3.146-.256-1.475-1.445-2.585-2.89-2.802l-.305-1.937a3.448 3.448 0 0 0 1.435-1.17 3.451 3.451 0 0 0 .413-3.146l-.324-.904a1.168 1.168 0 0 1-.049-.177 8.115 8.115 0 0 1-.462-2.625c.01-.442.039-.895.108-1.337l.01-.019a.98.98 0 0 1 1.16-.541 4.64 4.64 0 0 0 4.502-1.16l.747-.747a.983.983 0 0 1 1.248-.108l2.674 1.848a10.516 10.516 0 0 0 9.073 1.445.975.975 0 0 1 1.111.413l.462.737a8.77 8.77 0 0 1-.55 2.497l-.069.187-.167.432a3.445 3.445 0 0 0 .373 3.175c.374.531.875.944 1.455 1.199l-.305 1.937c-1.445.197-2.605 1.248-2.88 2.713-.069.334-.442 1.76-.826 3.234a5.936 5.936 0 0 1-2.9 3.696l-1.917 1.042a5.766 5.766 0 0 1-5.484.002zm26.621 34.622-18.078 6.488-.004.001 6.144-12.772c.16-.332.243-.697.243-1.066V87.01l7.33 2.309c.108.03.216.059.334.089 2.33.482 4.03 2.625 4.03 5.102v14.106z" fill="#4f9e7e" class="color000000 svgShape"></path>
    <path d="m120.823 102.848 3.418 7.056 3.407-7.061 1.046-2.164-2.651-9.623 1.66-3.843.044-.055v-.006a.713.713 0 0 0 .121-.253 1.14 1.14 0 0 0 .033-.182c0-.017.006-.028.006-.044a.816.816 0 0 0-.027-.199.192.192 0 0 0-.022-.061.659.659 0 0 0-.104-.215c-.006-.011-.016-.022-.022-.033-.006-.005-.016-.011-.022-.022a.847.847 0 0 0-.121-.116c-.005-.006-.011-.017-.022-.022-.005-.005-.011-.011-.022-.011-.006-.006-.006-.011-.011-.011l-2.843-2.601a.807.807 0 0 0-.898 0l-2.848 2.601c-.006 0-.011.006-.016.011-.005.006-.011.006-.016.011-.011.006-.016.017-.022.022-.044.039-.088.077-.126.121l-.016.016c-.005.011-.011.022-.022.028-.011.017-.016.028-.027.044-.011.022-.027.044-.038.066-.005.006-.005.017-.005.022a1.16 1.16 0 0 0-.066.188.874.874 0 0 0-.011.204v.033c.011.066.022.138.044.199v.005a.694.694 0 0 0 .088.171c.006.011.011.016.016.027.006 0 .006.006.006.006l.044.061 1.66 3.837-2.657 9.628 1.042 2.165zM40.657 116.992c-.008-.135-.032-.268-.032-.405V105.72l-4.862 10.108-7.273-15.121V83.754l.004-.009 1.72-3.47a12.536 12.536 0 0 0 5.544 1.298 12.56 12.56 0 0 0 5.554-1.298l1.72 3.47.003.007v4.607a17.127 17.127 0 0 1 2.381-3.142c.196-.22.407-.43.628-.625a16.87 16.87 0 0 1 1.907-1.549 16.662 16.662 0 0 1 3.897-2.027l-2.947-.929-1.838-4.716c1.376-1.514 1.389-2.352 1.92-4.377.118-.442 1.216-3.775 1.305-4.109 1.1-.406 2.431-2.563 3.255-4.078 1.045-1.924.921-4.346-.49-6.019l-.032-.038c-.059-.069-.118-.128-.177-.187.236-1.062.354-2.153.364-3.254v-.088c-.088-4.601-1.995-8.877-5.289-11.973a3.446 3.446 0 0 0-1.258-2.005 16.794 16.794 0 0 0-10.194-3.48h-1.416c-2.949 0-5.593 1.239-7.923 2.772a3.493 3.493 0 0 0-2.271.718c-3.814 2.939-6.439 8.552-6.537 14.057.01 1.101.128 2.182.364 3.244-.059.069-.118.128-.177.197l-.032.038c-1.436 1.703-1.512 4.163-.439 6.114.828 1.507 2.131 3.585 3.204 3.983.088.334 1.187 3.677 1.305 4.119.531 2.015.543 2.853 1.92 4.367l-1.838 4.716-8.297 2.615C8.912 83.922 5 88.857 5 94.509v16.524c0 1.455.914 2.753 2.281 3.234l27.318 9.811a3.35 3.35 0 0 0 1.16.206c.393 0 .786-.069 1.17-.206l6.181-2.219a6.883 6.883 0 0 1-2.453-4.867zM24.189 61.371a3.448 3.448 0 0 0 1.435-1.17 3.451 3.451 0 0 0 .413-3.146l-.324-.904a1.168 1.168 0 0 1-.049-.177 8.115 8.115 0 0 1-.462-2.625c.01-.442.039-.895.108-1.337l.01-.019a.98.98 0 0 1 1.16-.541 4.64 4.64 0 0 0 4.502-1.16l.747-.747a.982.982 0 0 1 1.248-.108l2.674 1.848a10.516 10.516 0 0 0 9.073 1.445.975.975 0 0 1 1.111.413l.462.737a8.77 8.77 0 0 1-.55 2.497l-.069.187-.167.432a3.445 3.445 0 0 0 .373 3.175c.374.531.875.944 1.455 1.199l-.305 1.937c-1.445.197-2.605 1.248-2.88 2.713-.069.334-.442 1.76-.826 3.234a5.936 5.936 0 0 1-2.9 3.696l-1.917 1.042a5.773 5.773 0 0 1-5.485 0l-1.927-1.042a5.903 5.903 0 0 1-2.9-3.696c-.688-2.644-.806-3.136-.816-3.146-.256-1.475-1.445-2.585-2.89-2.802l-.304-1.935zm5.77 53.733-18.078-6.488V94.509c0-2.477 1.691-4.62 4.03-5.102.118-.03.226-.059.334-.089l7.329-2.309v14.257c0 .369.083.732.243 1.066l6.143 12.771-.001.001z" fill="#4f9e7e" class="color000000 svgShape"></path>
    <path d="m32.351 102.848 3.418 7.056 3.407-7.061 1.046-2.164-2.651-9.623 1.66-3.843.044-.055v-.006a.713.713 0 0 0 .121-.253 1.14 1.14 0 0 0 .033-.182c0-.017.006-.028.006-.044a.816.816 0 0 0-.027-.199.192.192 0 0 0-.022-.061.659.659 0 0 0-.104-.215c-.006-.011-.016-.022-.022-.033-.006-.005-.016-.011-.022-.022a.847.847 0 0 0-.121-.116c-.005-.006-.011-.017-.022-.022-.005-.005-.011-.011-.022-.011-.006-.006-.006-.011-.011-.011l-2.843-2.601a.807.807 0 0 0-.898 0l-2.848 2.601c-.006 0-.011.006-.016.011-.005.006-.011.006-.016.011-.011.006-.016.017-.022.022-.044.039-.088.077-.126.121l-.016.016c-.005.011-.011.022-.022.028-.011.017-.016.028-.027.044-.011.022-.027.044-.038.066-.005.006-.005.017-.005.022a1.16 1.16 0 0 0-.066.188.874.874 0 0 0-.011.204v.033c.011.066.022.138.044.199v.005a.694.694 0 0 0 .088.171c.006.011.011.016.016.027.006 0 .006.006.006.006l.044.061 1.66 3.837-2.657 9.628 1.042 2.165zM111.639 87.137a13.218 13.218 0 0 0-6.331-3.372l-2.988-.934-7.166-2.251-2.497-5.974c1.72-1.769 1.979-2.971 2.617-5.4.177-.668 1.324-4.178 1.452-4.65 1.349-.405 3.018-3.35 3.957-5.215.951-1.889.925-4.19-.287-5.924a6.04 6.04 0 0 0-.357-.461 9.24 9.24 0 0 0-.433-.452 17.7 17.7 0 0 0 .492-4.02v-.098c-.108-5.328-2.359-10.273-6.242-13.821a3.436 3.436 0 0 0-1.308-2.192 19.385 19.385 0 0 0-11.708-3.971h-1.69c-3.411 0-6.508 1.484-9.231 3.293a3.48 3.48 0 0 0-2.487.688c-4.384 3.362-7.412 9.801-7.53 16.102.01 1.356.177 2.703.501 4.02a4.835 4.835 0 0 0-.442.452 6.352 6.352 0 0 0-.358.463c-1.214 1.736-1.239 4.041-.283 5.932.942 1.862 2.611 4.8 3.954 5.205.128.472 1.275 3.981 1.452 4.65.639 2.418.897 3.62 2.618 5.39l-2.497 5.984-7.166 2.251h-.01l-2.979.934c-2.438.531-4.6 1.72-6.331 3.372a4.129 4.129 0 0 0-.413.413 13.669 13.669 0 0 0-3.883 9.545v19.477c0 1.461.916 2.765 2.29 3.261l1.199.432h.01l31.28 11.138c.374.138.767.197 1.15.197a3.34 3.34 0 0 0 1.16-.197l31.29-11.138 1.199-.432a3.467 3.467 0 0 0 2.29-3.261V97.095c0-3.667-1.465-7.068-3.883-9.545a3.816 3.816 0 0 0-.411-.413zm-22.521 17.36-9.123 18.805-9.113-18.805V83.903l2.231-4.443.059.029a14.374 14.374 0 0 0 6.822 1.72c2.35 0 4.699-.57 6.832-1.72l.059-.029 2.231 4.443v20.594zm1.494-40.874c-.01.069-.138.609-.993 3.824a7.575 7.575 0 0 1-3.755 4.758l-2.281 1.219a7.588 7.588 0 0 1-7.166 0l-2.281-1.219a7.575 7.575 0 0 1-3.755-4.758c-.836-3.155-.973-3.735-.983-3.765a3.45 3.45 0 0 0-3.372-2.821l-.511-3.264a3.527 3.527 0 0 0 1.897-1.347 3.448 3.448 0 0 0 .413-3.146l-.315-.885-.069-.187a11.154 11.154 0 0 1-.639-2.979L67.747 47a.976.976 0 0 1 1.16-.531c1.966.541 4.08 0 5.534-1.425l.894-.875a.983.983 0 0 1 1.239-.108l3.185 2.182a12.807 12.807 0 0 0 10.951 1.73.975.975 0 0 1 1.111.413l1.219 1.917a11.725 11.725 0 0 1-.56 2.005l-.187.482-.098.256a3.438 3.438 0 0 0 2.29 4.542l-.521 3.273c-1.652.009-3.057 1.13-3.352 2.762z" fill="#4f9e7e" class="color000000 svgShape"></path>
</svg>