<svg xmlns="http://www.w3.org/2000/svg" viewBox="0 0 64 64" id="employers-insurance">
    <path fill="#4f9e7e" d="M27.4 42.7c.4.8 1 1.6 1.8 2.3.8.7 1.8 1.1 3 1.1h.2c1.1 0 2.1-.4 2.9-1.1.8-.7 1.4-1.5 1.8-2.3.8-1.7 1.3-3.5 1.3-5.2v-.8c-.2-2-1.4-3.5-3.3-4.2-1.1-.3-2-.5-2.9-.5-1 0-1.9.2-2.7.5-2 .7-3.1 2.2-3.3 4.2v.8c-.1 1.7.3 3.5 1.2 5.2zm4.9 2.5zM43.5 50.5c-.4-.3-1-.6-1.5-.8l-4.1-1.5c-.9-.3-1.7-.4-2.5.2l-.2.1c-.2.2-.4.5-.5.7 0 .1-.1.1-.1.2l-2.3 3.3-.3-.4c-.8-1.1-1.6-2.2-2.4-3.4-.1-.1-.1-.2-.2-.2-.3-.3-.6-.6-1-.7l-.3-.1-1.3.3-4.2 1.6c-.6.2-1.1.5-1.6.8-1.4 1.1-1.4 2.5-1.4 2.5v3.3c0 .4.1.7.3 1.1.5 1.3 1.6 1.7 2.4 1.7h19.9c.8 0 1.9-.4 2.4-1.7.1-.3.2-.7.3-1.2v-3.1c-.1-.3 0-1.6-1.4-2.7zM46.1 44.4c.4.7.9 1.4 1.6 2.1.7.7 1.6 1 2.7 1h.1c.9 0 1.9-.4 2.6-1 .7-.7 1.2-1.3 1.6-2.1.7-1.5 1.1-3.1 1.1-4.7V39c-.2-1.8-1.2-3.1-3-3.8-.7-.3-1.6-.4-2.4-.4-.9 0-1.7.2-2.4.4-1.8.7-2.8 2-3 3.8v.7c0 1.6.4 3.2 1.1 4.7zm4.4 2.2zM61.8 56.5c0 .4-.1.8-.2 1.1-.5 1.1-1.5 1.5-2.2 1.5H45.9c.2-.3.4-.6.5-.9.2-.5.4-1.1.4-1.7v-3.2c.1-1.1-.3-2.6-1.6-3.8l.2-.1 1.2-.3.3.1c.3.1.6.3.9.6l.2.2 2.1 3 .3.4 2.1-2.9c0-.1.1-.1.1-.2.1-.2.3-.4.5-.6l.1-.1c.7-.5 1.5-.4 2.3-.2l3.7 1.4c.5.2 1 .4 1.4.7 1.3 1 1.2 2.2 1.2 2.3v2.7zM19 39.7V39c-.2-1.8-1.2-3.1-3-3.8-.7-.3-1.6-.4-2.4-.4-.9 0-1.7.2-2.4.4-1.8.7-2.8 2-3 3.8v.7c0 1.6.4 3.1 1.1 4.7.4.7.9 1.4 1.6 2.1.7.7 1.6 1 2.6 1h.1c1 0 1.9-.4 2.7-1 .7-.7 1.2-1.3 1.6-2.1.7-1.5 1.1-3.1 1.1-4.7zm-5.5 6.9zM17.9 58.1c.1.4.3.7.5 1H4.6c-.7 0-1.7-.4-2.2-1.5-.1-.3-.2-.6-.2-1.1v-2.8c0-.1-.1-1.4 1.2-2.3.4-.3.9-.5 1.4-.7l3.7-1.4c.8-.3 1.5-.4 2.3.2l.1.1c.2.2.4.4.5.6 0 .1.1.1.1.2l2.1 2.9.3-.4 2.1-3c0-.1.1-.1.2-.2.3-.3.6-.5.9-.6l.3-.1 1.2.3.5.2c-1.3 1.3-1.6 2.8-1.5 3.7v3.4c0 .5.1 1 .3 1.5z"></path>
</svg>