<svg xmlns="http://www.w3.org/2000/svg" viewBox="0 0 3584 1900" id="two-business-people-shake-hands-as-result-of-agreement">
    <g data-name="Layer 2">
        <path fill="#472b27" d="M2999.81,684c89,55.08,78.39,173.72,69.92,216.09s-82.63,82.63-129.24,17,12.72-224.56,12.72-224.56Z"></path>
        <path fill="#3b56a6" d="M2659.19,901.62c-54.52-1.88-218.07,360.94-317.7,407.94-116.56-67.67-342.15-182.35-342.15-182.35l-48.87,63.92c58.27,95.87,342.14,338.38,436.13,312.06s283.87-203,283.87-203l-11.28-391Z"></path>
        <path fill="#f0c499" d="M1999.34,1127.21c-15-18.8-84.59-131.59-105.27-129.71S1773.75,984.34,1755,963.66s-26.31,50.76,3.76,63.92S1817,1159.17,1817,1159.17c35.72,39.48,133.48,32,133.48,32C2005,1174.21,1999.34,1127.21,1999.34,1127.21Z"></path>
        <path fill="#35a8e3" d="M3287.61,874.74H2791.78a150.63,150.63,0,0,0-149.85,135.39l-70.15,689.51,597.91-21.91,142.69-773.06A25.21,25.21,0,0,0,3287.61,874.74Z"></path>
        <path fill="#3ec5fc" d="M3252.3,1703.4l-160.46-29.33,131.34-733.76a81.57,81.57,0,0,1,94.9-65.57h0a81.56,81.56,0,0,1,65.56,94.9Z"></path>
        <path fill="#c7d5ff" d="M2715.41,890.42c-33.66,9.32-56.22,11.2-56.22,11.2-11.28,41.36-75.19,244.39-94,278.23s3.76,33.84,26.31,139.11S2616,1601,2616,1601h353.43l39.48-674.89c-24.44,1.88-77-26.62-77-26.62Z"></path>
        <path fill="#ffd0a2" d="M1641.73,1565.39l124.86-29s95.87,31.21,102.55,35.67,64.66,75.8,64.66,75.8c-33.44,4.46-51.28-13.37-51.28-13.37,0,15.6-24.52,20.06-69.11,8.91s-115.94,4.46-142.69,6.69-53.51-17.83-53.51-17.83Z"></path>
        <path fill="#2f4587" d="M1039.65,831.12c70.5,128.78,205.85,666.43,205.85,666.43,131.59,3.76,417.34,63.92,417.34,63.92l-33.84,94-567.73-3.76Z"></path>
        <path fill="#233369" d="M965.39,787.89c31,17.86,74.26,43.23,74.26,43.23,18.8,53.58,59.22,211.49,51.7,431.44s18.8,439.9,18.8,439.9-135.36-3.76-137.24-9.4S965.39,787.89,965.39,787.89Z"></path>
        <path fill="#35a8e3" d="M300.46,874.74H796.29a150.64,150.64,0,0,1,149.86,135.39l70.15,689.51-597.92-21.91L275.7,904.67A25.21,25.21,0,0,1,300.46,874.74Z"></path>
        <path fill="#3ec5fc" d="M335.77,1703.4l160.47-29.33L364.9,940.31A81.57,81.57,0,0,0,270,874.74h0a81.57,81.57,0,0,0-65.57,94.9Z"></path>
        <path fill="#a7b9f0" d="M687.17,734.31c37.59-24.44,57.33-45.12,57.33-45.12l162.62,62L930.85,756l34.54,31.89c6.58,32.9,68.62,292.32,48.88,472.79s8.46,456.82,8.46,456.82S878.92,1709,876.1,1700.58,687.17,734.31,687.17,734.31Z"></path>
        <polygon fill="#d6572d" points="875.16 875.3 935.31 954.26 972.91 946.74 957.87 828.3 899.6 800.11 875.16 875.3"></polygon>
        <path fill="#c7d5ff" d="M930.85,756l-23.73-4.77-162.62-62s-19.74,20.68-57.33,45.12c0,0,3.26,16.8,8.93,46C780.23,865.89,875.16,959.9,875.16,959.9c1.88-9.4,31-141.93,31-141.93l81.31,70.49c-7.67-38.86-20.22-91.23-22.09-100.57Z"></path>
        <path fill="#2f4587" d="M687.17,734.31c101.51,109,229.34,184.23,274.46,396.66s-75.19,411.7-28.2,547.05-336.5,11.28-336.5,11.28c-15-159.79-120.31-402.3-131.59-597.81S587.53,764.39,687.17,734.31Z"></path>
        <rect width="3179.87" height="105.27" x="199.01" y="1654.25" fill="#b5704e"></rect>
        <rect width="576.09" height="105.27" x="2802.79" y="1654.25" style="mix-blend-mode:multiply" fill="#d1d1d1"></rect>
        <path fill="#f0c499" d="M2931.85,899.44c-55.43-18.47-51.31-65-11.48-205.87,0,0-73.09,19.16-109.16,41.36l-19,29.64c1.63,30.26-13.57,98.66-76.84,125.85-31.78,54.44-29.9,148.43-29.9,148.43,52.64,63.92,156,33.84,156,33.84C2860.34,999.38,2931.85,899.44,2931.85,899.44Z"></path>
        <path fill="#acbdf0" d="M3007.76,630c31.78,65.14-55.61,100.1-87.39,63.55C2933.08,652.26,3007.76,630,3007.76,630Z"></path>
        <path fill="#5c3732" d="M2709.29,427.12c16.22-65.54,156.76-95.27,246.63-27s127.7,312.16-70.28,307.43C2742.4,561.58,2709.29,427.12,2709.29,427.12Z"></path>
        <path fill="#472b27" d="M2692.4,607.53c-39.19-70.27-52-171.62,42.57-177.7C2823.48,431.18,2692.4,607.53,2692.4,607.53Z"></path>
        <path fill="#ffd0a2" d="M2735,429.83c-26.35,35.13-51.35,74.32-53,111.82s3.71,67.23-1.69,100.34-13.52,122.3,77,146,166.9-78.38,172.3-117.57c63.52,19.59,75-41.89,64.19-65.54s-55.4-29.73-67.56,20.27c-9.46,1.35-18.25-54.06-25.68-54.73s-52-31.76-52-31.76l-20.94-58.11-32.44-58.78S2758.62,415.64,2735,429.83Z"></path>
        <path fill="#242424" d="M2813.8,609.61h0a11.31,11.31,0,0,1-11.32-11.31v-9.46a11.32,11.32,0,0,1,11.32-11.32h0a11.31,11.31,0,0,1,11.31,11.32v9.46A11.31,11.31,0,0,1,2813.8,609.61Z"></path>
        <path d="M2974.46,620.82c-22.17,0-35.13,20.91-37.14,32.1l-.1.53,2.06.37.1-.53c.89-4.95,3.75-10.87,7.67-15.94,1.94,1.63,7.59,6.77,8.21,11.9l.07.53,2.08-.25-.07-.54c-.72-5.92-6.58-11.3-9-13.28,5.07-5.93,13.63-12.79,26.1-12.79h1.15l0-2.09Z" style="mix-blend-mode:multiply" fill="#dedede"></path>
        <path d="M2831.93,587.26a6.76,6.76,0,1,1-6.76-6.76A6.76,6.76,0,0,1,2831.93,587.26Z" style="mix-blend-mode:screen" fill="#4f4f4f"></path>
        <polygon fill="#242424" points="2813.8 577.52 2791.95 574.2 2809.29 584.56 2813.8 577.52"></polygon>
        <path fill="#242424" d="M2721,605.34h0A11.31,11.31,0,0,1,2709.69,594v-9.46A11.31,11.31,0,0,1,2721,573.24h0a11.32,11.32,0,0,1,11.32,11.32V594A11.32,11.32,0,0,1,2721,605.34Z"></path>
        <circle cx="2732.38" cy="582.98" r="6.76" style="mix-blend-mode:screen" fill="#4f4f4f"></circle>
        <polygon fill="#242424" points="2721 573.24 2699.16 569.92 2716.5 580.28 2721 573.24"></polygon>
        <path d="M2745.1 567.22c13.07 20.27 6.76 40.09.23 45.49C2750.73 600.32 2750.28 581.85 2745.1 567.22zM2761.54 652.58c-11.71 2.92-32.2-6.76-34.23-9.24 8.33 12.39 16.44 19.82 23.87 15.77A68.85 68.85 0 002761.54 652.58z" style="mix-blend-mode:multiply" fill="#dedede"></path>
        <path fill="#472b27" d="M2681.93 541.65c34.46-12.5 54.39 3.38 54.39 3.38C2711 524.76 2695.1 527.46 2681.93 541.65zM2791.39 546.72c29.73-1 60.13 15.2 62.5 17.57C2827.54 534.89 2808.62 538.61 2791.39 546.72z"></path>
        <path fill="#ff9e80" d="M2826,694c-16.22,5.4-36.94.45-59-9.46s-59.46-6.76-35.14,18c-5.85,18.47,3.61,32.88,26.13,32S2817,711.59,2826,694Z"></path>
        <path d="M2767 684.56c-22.07-9.91-59.46-6.76-35.14 18 40.72 8.34 82.8-2 94.09-8.46l.06-.1C2809.74 699.42 2789 694.47 2767 684.56zM2773.14 738.61c0 1.31-12.79 8.45-21.28 8.45s-9.46-7.14-9.46-8.45 1 3.72 9.46 3.72S2773.14 737.31 2773.14 738.61zM2837.67 689c.94 2.09-1.34 4.86-2.1 5.21s.26-1.88-.67-4-3.49-3.25-2.73-3.59S2836.74 686.9 2837.67 689z" style="mix-blend-mode:multiply" fill="#dedede"></path>
        <path fill="#754640" d="M2735 429.83c54.05-.68 68.24 32.43 83.78 73s54.73 123 133.79 50c-27 14.19-61.21 6.19-81.76-17.57-31.31-36.18-35.45-82.67-50.68-110.81C2799.81 386.93 2752.78 384 2735 429.83zM2735 429.83c-74.33-17.57-121.63 27-98 84.46s20.27 76.35 11.49 83.78c18.24-20.27 16.89-56.08 9.46-85.13S2657.94 437.93 2735 429.83z"></path>
        <circle cx="2937" cy="679.15" r="18.24" fill="#fff"></circle>
        <path fill="#734f39" d="M975.08,363.32c31.48-69.61,28.64-124.75-22.64-159.52,8.5-40.05-50.44-94.85-105.35-40.6S670.52,279.48,632.53,283s-31.39,32.26-17.82,42.61c-22,42.33-6.55,79.16,24.07,109.33s48.69,81,62.89,119.48,60.18,29.34,60.18,29.34Z"></path>
        <path fill="#f0c499" d="M738.9,565.71c10.16,74.26-5.57,152.09-5.57,152.09,25.95,40.65,103.92,115.87,154.36,106.4s48.77-67.68,43.16-68.2c-27-13.85-19.65-62.72-28.7-72.06S738.9,565.71,738.9,565.71Z"></path>
        <path fill="#ffd0a2" d="M912,258.28c7.61,17.69,13.09,21,20.29,12,29.8,42.64,43.22,53.88,60.81,123.31s44.78,205.93,18.11,248.37-89.38,69.63-151,56.38S738.9,565.71,738.9,565.71c-15.84,26.15-65.22,20.21-80.69-26.9s53.38-90.48,83.11-10.49c29.58-16.71,3-85.4,3-85.4,37.68-25.55,24.13-83.52,23-85.11C850.43,347.31,912,258.28,912,258.28Z"></path>
        <path d="M908.35,415.79l3.25,6.14c2.16,3.85,5,9.47,8.79,16l12.68,22.51c4.7,8.18,9.7,16.91,14.71,25.64s10,17.45,14.36,25.72c1.07,2.05,2,4.14,2.84,6.06a11.36,11.36,0,0,1,.45,1.3l0,.15s0,.25.07-.19.34-.52.51-.69l-.32.26a14.69,14.69,0,0,1-2.4,1.45c-3.72,1.93-7.51,3.53-11,5-7,2.88-12.74,5.41-16.86,7l-4.76,1.89a17.4,17.4,0,0,1-1.71.59,66.61,66.61,0,0,0,6.79-1.52c4.26-1.19,10.39-2.75,17.58-5.22,3.6-1.24,7.47-2.55,11.58-4.32a18.55,18.55,0,0,0,3.33-1.77l.34-.24a2.63,2.63,0,0,0,.85-1.43,2.41,2.41,0,0,0,.09-1l-.07-.68a15.74,15.74,0,0,0-.5-2,56.25,56.25,0,0,0-2.76-6.67c-4-8.69-9-17.49-14-26.29S942,466.12,937,458.12s-10-15.35-14.11-21.68S915,425,912.46,421.4,908.35,415.79,908.35,415.79Z" style="mix-blend-mode:multiply" fill="#c9c9c9"></path>
        <path d="M674.83,523.73,674.2,521c44.36-10.32,55.12,28.65,55.23,29l-2.69.72a43.93,43.93,0,0,0-9.16-16.33c-1.75.7-11.21,4.86-12.23,14.54l-2.78-.3c1.07-10,9.5-14.81,12.95-16.37C707.74,524.85,695.07,519,674.83,523.73Z" style="mix-blend-mode:multiply" fill="#dedede"></path>
        <path fill="#242424" d="M850.38,481.16h0a11.67,11.67,0,0,0,9.17-13.73l-1.91-9.57a11.68,11.68,0,0,0-13.74-9.16h0a11.67,11.67,0,0,0-9.16,13.73l1.91,9.57A11.66,11.66,0,0,0,850.38,481.16Z"></path>
        <path d="M827.85,460.85a7,7,0,1,0,5.47-8.2A7,7,0,0,0,827.85,460.85Z" style="mix-blend-mode:screen" fill="#4f4f4f"></path>
        <path fill="#242424" d="M947.54,447.63h0a11.66,11.66,0,0,0,9.16-13.73l-1.91-9.57a11.67,11.67,0,0,0-13.73-9.17h0a11.68,11.68,0,0,0-9.16,13.74l1.91,9.57A11.67,11.67,0,0,0,947.54,447.63Z"></path>
        <path d="M925,427.31a7,7,0,1,0,5.47-8.2A7,7,0,0,0,925,427.31Z" style="mix-blend-mode:screen" fill="#4f4f4f"></path>
        <path fill="#734f39" d="M806.06 437.9c1.63 2.63 19.94-15.19 32.69-23.1s15.11-2.91 13.49-5.54-6.64-11.87-19.39-4S804.43 435.28 806.06 437.9zM965.19 377c.35 3.07-19.89-.2-31.69 1.12s-10.71 6.72-11 3.65-2-13.45 9.81-14.77S964.85 374 965.19 377z"></path>
        <path fill="#fff" d="M989.74,547.87c-67.59,41.29-174.67,23.78-174.67,23.78,65,45.09,132.73,55.32,150,48.54C970.83,582.47,989.74,547.87,989.74,547.87Z"></path>
        <path fill="#8f2e2b" d="M988.71,548.83l.84-.6c-1.89,3.54-19,36.34-24.47,72,0,0-6.46-24.2-8.08-29.36S988.71,548.83,988.71,548.83Z"></path>
        <path d="M852.22 593.76a314.2 314.2 0 01-37.15-22.11 380.43 380.43 0 0075.9 3c-26.23 7.37-59.78-1-54.49 5.36C839.41 583.56 846.19 589.11 852.22 593.76zM930.88 638.42c.51 2.19 21.07 7.16 33.85 4.3s12.95-12.45 12.43-14.63-1.51 3.86-14.29 6.71S930.36 636.24 930.88 638.42z" style="mix-blend-mode:multiply" fill="#dedede"></path>
        <path fill="#ff7245" d="M935.31,954.26s65.32,291.3,39.48,434.26c-14.1,78-33.84,173.89-33.84,173.89,36.66,49.35,91.65,83.19,91.65,83.19,0-47.94,26.79-121.26,29.61-238.28s-89.3-460.58-89.3-460.58Z"></path>
        <path fill="#ffd0a2" d="M1551.45,1126.74c47.94-29.61,131.13-110,160.74-112.79s105.74,4.23,129.71,21.14,128.3,56.4,93.06,74.73-52.17,0-47.94,22.56-39.48,42.3-87.42,63.45-94.46,26.79-156.5,21.15-80.37,2.82-80.37-4.23S1551.45,1126.74,1551.45,1126.74Z"></path>
        <path fill="#3b56a6" d="M632.65,802c154.15,79,398.54,374.1,490.65,407.94,122.2-41.36,428.62-103.4,428.62-103.4,41.36,63.92,47,148.51,47,148.51-203,105.28-379.74,227.47-453.06,223.71C974.79,1397.92,751.08,1317.08,608.21,1178S489.78,847.1,632.65,802Z"></path>
        <path fill="#2f4587" d="M2774.89 1601h194.49l39.47-674.89c-24.43 1.88-77-26.62-77-26.62C2787.5 1016.58 2774.79 1449 2774.89 1601zM2723.68 890.76l-8.27-.34c-33.66 9.32-56.22 11.2-56.22 11.2-11.28 41.36-75.19 244.39-94 278.23s3.76 33.84 26.31 139.11S2616 1601 2616 1601h15.56l31.24-14.42S2643.63 1086.68 2723.68 890.76z"></path>
        <path fill="#ffd0a2" d="M2439.45,1587.87l-95.94-22.27s-73.67,24-78.81,27.41-49.68,58.25-49.68,58.25c25.7,3.43,39.4-10.28,39.4-10.28,0,12,18.85,15.42,53.11,6.85s89.09,3.43,109.65,5.14,41.11-13.7,41.11-13.7Z"></path>
        <path fill="#3b56a6" d="M2996.64,930.76c-80.12,40.06-70.5,578.07-70.5,578.07-110,16.92-489.25,63.45-489.25,63.45-2.82,33.84,19.74,79,19.74,79s556.92,4.23,573.84-9.87,90.24-403.24,70.5-541.42S3024.83,916.66,2996.64,930.76Z"></path>
    </g>
</svg>