<?xml version="1.0" encoding="UTF-8"?>
<svg id="Layer_1" data-name="Layer 1"
  xmlns="http://www.w3.org/2000/svg"
  xmlns:xlink="http://www.w3.org/1999/xlink" viewBox="0 0 937.8 417.11">
  <defs>
    <style>
      .cls-1 {
        fill: #fff;
      }

      .cls-2 {
        fill: #e0d5c3;
      }

      .cls-3 {
        fill: #fec76d;
      }

      .cls-4 {
        fill: #f69380;
      }

      .cls-5 {
        fill: #397c61;
      }

      .cls-6 {
        fill: #3ea3b9;
      }

      .cls-7 {
        clip-path: url(#clippath);
      }

      .cls-8 {
        fill: #ac4848;
      }

      .cls-9 {
        fill: none;
      }

      .cls-10 {
        fill: #3c468e;
      }

      .cls-11 {
        fill: #121a41;
      }

      .cls-12 {
        fill: #f05e6b;
      }

      .cls-13 {
        fill: #e05959;
      }

      .cls-14 {
        fill: #4f9b7e;
      }
    </style>
    <clipPath id="clippath">
      <path class="cls-9" d="m224.36,265.67l87.74-3.05s-2.96-34.99-4.95-56.92c-1.99-21.94-16.71-68.31-16.71-68.31l4.44-4.81s-27.03-28.69-40.63-28.32-19.34,17.86-25.73,53.68c-6.39,35.82-4.17,107.74-4.17,107.74Z"/>
    </clipPath>
  </defs>
  <!-- <g>
    <path class="cls-14" d="m41.66,202.84s-15.18,27.1-15.73,40.25c-.56,13.14,7.7,27.67,7.7,27.67,0,0,11-13.42,12.85-26.56,1.85-13.14-4.81-41.36-4.81-41.36Zm-19.57,77.56s.74-10.29-3.82-18.99C13.7,252.71,0,241.04,0,241.04c0,0-.37,21.47,5,29.71,5.37,8.24,17.08,9.65,17.08,9.65Zm17.33,22.45s-1.46-9.79,3.72-18.86,16.85-18.67,16.85-18.67c0,0,1.11,17.74-3.15,27.37-4.26,9.63-17.42,10.17-17.42,10.17Z"/>
    <path d="m32.59,330.08h-.01c-.46,0-.83-.39-.82-.85,0-.48.74-48.19,1.11-61.55.37-13.4,6.61-56.86,6.67-57.3.07-.46.47-.78.94-.71.46.07.77.49.71.94-.06.44-6.29,43.79-6.66,57.1-.37,13.36-1.1,61.06-1.11,61.53,0,.46-.38.82-.83.82Z"/>
    <path d="m33.19,293.52c-.2,0-.41-.07-.57-.23-.07-.06-6.67-6.27-14.03-16.02-7.37-9.77-15.92-27.92-16.01-28.1-.2-.42-.01-.91.4-1.11.41-.19.91-.01,1.11.4.08.18,8.56,18.18,15.83,27.81,7.27,9.63,13.77,15.75,13.84,15.81.34.31.35.84.04,1.18-.16.18-.39.27-.61.27Zm-.27,16.11c-.24,0-.48-.11-.65-.31-.29-.36-.24-.88.12-1.17.07-.06,7.09-5.78,13.25-13.39,6.14-7.58,11.29-21.47,11.34-21.61.16-.43.64-.65,1.07-.49.43.16.65.64.49,1.07-.21.58-5.3,14.29-11.61,22.08-6.27,7.75-13.42,13.58-13.49,13.64-.16.12-.34.18-.53.18Z"/>
  </g> -->
  <path class="cls-14" d="m905.83,300.44s-4.88-7.93-2.66-18.12c2.23-10.18,19.8-28.51,19.8-28.51,0,0,.75,23.32-2.58,32.77-3.33,9.44-14.56,13.86-14.56,13.86Zm2.81,12.24s.09-9.81,6.2-13.51,22.95-6.11,22.95-6.11c0,0-11.85,18.51-17.4,19.62s-11.75,0-11.75,0Z"/>
  <path d="m900.22,342.63s-.05,0-.08,0c-.46-.05-.79-.45-.75-.91.03-.34,3.38-34.15,7.06-47.75,3.68-13.62,13.11-32.73,13.2-32.92.21-.42.71-.58,1.12-.38.41.2.58.7.38,1.12-.09.19-9.45,19.15-13.08,32.61-3.64,13.48-6.98,47.15-7.01,47.49-.04.43-.4.75-.83.75Z"/>
  <path d="m903.18,317.7c-.25,0-.5-.11-.66-.33-.28-.36-.21-.89.16-1.17l25.55-19.54c.36-.27.88-.21,1.17.16.28.36.21.89-.16,1.17l-25.55,19.54c-.15.11-.33.17-.51.17Z"/>
  <path class="cls-5" d="m777.37,153.97s8.04.04,14.98-2.35c6.94-2.4,13.47-2.67,13.47-2.67,0,0,12.91-45.12,13.33-65.95.42-20.83-18.25-30.47-27.38-29.19s-27.04,11.01-32.87,44.46c-5.83,33.46,18.48,55.7,18.48,55.7Z"/>
  <g class="paper">
    <path class="cls-14" d="m791.76,53.82s-15.07,6.95-19.45,40.36c-6.2,47.27,23.93,109.47,16.78,139.09-7.15,29.62-19.74,42.21-43.43,38.87-23.69-3.33-74.45-15.55-93.31-36.28s12.42-166.21,12.42-166.21c0,0,49.98-4.28,62.19-6.22,12.22-1.94,34.57-7.08,45.26-8.19,10.69-1.11,19.55-1.42,19.55-1.42Z"/>
    <path class="cls-5" d="m640.59,62.59s34.34-3.47,42.85,39.36c8.51,42.83,2.1,110.2,18.51,137.24,19.99,32.95,43.69,32.95,43.69,32.95,0,0-97-5.55-118.47-6.66-21.47-1.11-67.14,1.2-67.14,1.2,0,0-6.91-126.15,15.31-162.9,22.21-36.75,65.25-41.19,65.25-41.19Z"/>
    <path class="cls-14" d="m359.31,288.06s6.39-150.5,55.35-201.04c28.22-29.13,225.94-24.44,225.94-24.44,0,0-30.45-2.22-50.26,81.98-17.54,74.56-34.99,164.04-48.87,182.36s-23.15,21.92-34.06,22.03c-10.91.11-90.06-10.56-115.88-24.62-25.82-14.06-32.21-36.28-32.21-36.28Z"/>
    <path class="cls-5" d="m300.44,288.06h175.49s-.83,38.18,6.8,47.07c10.93,12.72,24.67,13.84,24.67,13.84l-180.86,1.85s-14.33-7.55-19.8-26.48c-5.47-18.92-6.3-36.28-6.3-36.28Z"/>
  </g>
  <path class="cls-11" d="m565.75,95.41c-1.58,0-3.27-.05-5.02-.16-4.14-.28-6.48-.71-8.75-1.12-1.96-.36-3.81-.69-6.67-.87-2.69-.16-4.65.23-7.14.73-2.98.6-6.74,1.32-12.94,1.3-5.67-.03-7.5-.67-9.11-1.24-1.56-.54-2.8-.98-7.72-.61-5.25.4-8.35.23-10.85.1-2.28-.12-4.1-.21-6.67.16-5.66.81-8.76-.03-13.74-1.6-3.18-.99-5.11-.33-7.78.6-1.13.39-2.41.84-3.95,1.21-5.41,1.31-6.99.34-11.22-2.27l-.22-.13c-3.26-2-14.42,1.61-18.44,3.18-.43.17-.91-.05-1.08-.47s.05-.91.47-1.08c1.56-.6,15.37-5.84,19.91-3.04l.22.13c4.12,2.53,5.22,3.21,9.95,2.07,1.46-.35,2.7-.79,3.8-1.16,2.86-.99,5.12-1.77,8.82-.61,4.89,1.53,7.69,2.3,13.01,1.53,2.74-.4,4.61-.29,7-.17,2.46.13,5.51.28,10.64-.1,5.27-.4,6.72.11,8.4.7,1.49.52,3.19,1.11,8.57,1.14,6.13-.05,9.7-.69,12.6-1.27,2.51-.51,4.69-.94,7.57-.75,2.95.19,4.85.53,6.86.9,2.22.4,4.52.82,8.57,1.1,7.61.52,14.2-.38,14.26-.38.48-.07.88.26.94.71.06.46-.25.88-.71.94-.06.01-4.13.57-9.59.57Zm5.33,23.55c-.07,0-.13,0-.2-.02-.06-.01-5.92-1.47-11.91-1.83-2.23-.13-3.77-.05-5.27.04-2.58.15-4.81.27-9.46-.8-6.94-1.6-9.01-2-15.52-1.83-2.35.07-4.59.28-6.97.5-4.05.38-8.24.78-13.11.42-3.97-.29-7.72-1.7-11.03-2.95-3.17-1.19-5.91-2.22-8.1-2.05-.98.07-2.18.2-3.55.35-5.3.57-13.3,1.43-20.33.39-3.08-.46-5.8-1.06-8.2-1.6-4.45-.99-7.97-1.76-11.54-1.19-5.87.95-12.35-1.23-12.62-1.33-.43-.15-.67-.62-.52-1.06.15-.44.62-.67,1.06-.52.06.02,6.34,2.14,11.82,1.26,3.89-.63,7.72.23,12.16,1.21,2.37.53,5.06,1.12,8.08,1.57,6.8,1.01,14.69.16,19.9-.4,1.39-.15,2.61-.28,3.61-.36,2.56-.2,5.46.89,8.81,2.15,3.21,1.21,6.84,2.57,10.57,2.84,4.74.35,8.85-.04,12.83-.42,2.29-.22,4.67-.44,7.07-.51,6.71-.2,8.84.23,15.94,1.87,4.43,1.02,6.55.9,9,.76,1.47-.08,3.14-.18,5.46-.04,6.15.37,11.97,1.81,12.22,1.87.45.11.72.56.61,1.01-.1.38-.44.63-.81.63Zm-8.14,18.7h-.02c-.77-.01-18.89-.4-25.34-2.45-4.03-1.28-8.96-1.12-14.19-.95-2.9.1-5.91.2-8.99.06-6.64-.28-8.37-1.01-11.24-2.21-.95-.4-2.03-.85-3.48-1.36-3.06-1.08-6.64-.73-10.79-.31-3.28.32-6.99.69-10.99.36-4.69-.39-7.97-1.34-10.86-2.18-2.66-.77-4.96-1.44-7.8-1.52-2.66-.08-4.63-.02-6.71.04-2.61.08-5.32.16-9.6-.04-7.71-.38-12.59-3.33-12.8-3.46-.39-.24-.51-.75-.27-1.14.24-.39.75-.52,1.14-.27.05.03,4.75,2.86,12.01,3.21,4.2.2,6.88.12,9.46.04,2.11-.06,4.1-.12,6.81-.04,3.05.09,5.55.82,8.21,1.59,2.82.82,6.01,1.74,10.53,2.12,3.84.32,7.32-.02,10.69-.35,4.35-.43,8.09-.8,11.5.4,1.49.52,2.6.99,3.57,1.39,2.79,1.17,4.33,1.81,10.67,2.08,3.02.13,5.99.03,8.87-.06,5.37-.17,10.44-.34,14.74,1.03,6.22,1.98,24.69,2.36,24.87,2.37.46,0,.82.39.82.85,0,.45-.38.81-.83.81Zm184.39-41.44c-2.62,0-5.68-.18-9.11-.67-8.39-1.2-10.75-1.37-15.46-1.7-2.14-.15-4.77-.34-8.66-.68-7.61-.66-10.67.21-13.62,1.06-1.82.52-3.71,1.05-6.54,1.18-7.2.33-12.35,0-12.4,0-.46-.03-.81-.42-.78-.88.03-.46.39-.86.88-.78.05,0,5.13.33,12.21,0,2.64-.12,4.35-.61,6.16-1.12,3.1-.88,6.31-1.79,14.22-1.12,3.88.33,6.5.52,8.63.68,4.74.34,7.12.51,15.57,1.72,11.86,1.69,19.21-.5,19.28-.52.45-.14.9.11,1.04.55.13.44-.11.9-.55,1.04-.22.07-4.14,1.25-10.89,1.25Zm4.07,18.2c-2.44,0-5.44-.34-8.87-1.42-6.66-2.08-11.93-1.77-17.52-1.44-1.93.11-3.92.23-5.98.25-3.61.03-5.97.3-8.48.6-2.92.34-5.95.72-11.1.64-9.51-.09-14.78-2.45-15-2.55-.42-.19-.6-.68-.41-1.1.19-.42.69-.61,1.1-.41.05.02,5.2,2.31,14.33,2.4,5.05.07,8.01-.3,10.89-.63,2.44-.28,4.96-.58,8.66-.6,2.02-.01,3.99-.13,5.9-.24,5.74-.34,11.17-.65,18.12,1.52,8.77,2.74,14.58.4,14.63.38.42-.18.91.02,1.09.45.18.42-.02.91-.45,1.09-.16.07-2.7,1.09-6.91,1.09Z"/>
  <g class="pen">
    <path class="cls-10" d="m46.28,7.06l272.12,102.55s-5,8.89-7.22,17.77c-2.22,8.89-3.15,14.62-3.15,14.62L30.36,40.38s-.23-11.52,5.11-20.62c5.35-9.09,10.81-12.7,10.81-12.7Z"/>
    <path class="cls-11" d="m37.08,4.01s-13.76-3.61-20.42.83c-3.33,2.22-7.36,12.62-6.11,17.42s14.27,13.96,14.27,13.96L37.08,4.01Z"/>
    <path class="cls-2" d="m148.84,35.94c-2.59-.19-4.26,1.3-10.74,0C131.62,34.64,49.25.4,47.58.03c-1.67-.37-9.81,3.33-9.81,3.33,0,0-6.66,5.74-10,16.85s-2.96,17.77-2.96,17.77l5.55,2.41L46.29,7.06l99.38,37.45s7.89-2.84,7.34-5.43c-.56-2.59-4.17-3.15-4.17-3.15Z"/>
    <path class="cls-12" d="m172.94,54.79s-7.81,6.51-10.59,16.13c-2.78,9.63-2.72,16.77-2.72,16.77l17.4,6.37s-.16-11.76,1.88-17.59c2.04-5.83,10.37-15.52,10.37-15.52l-16.35-6.16Z"/>
    <path class="cls-10" d="m375.05,132.75l-49.61-18.14s-5,.74-7.96,10.37-1.11,17.96-1.11,17.96l51.09,17.59,7.59-27.77Z"/>
    <path class="cls-11" d="m318.4,109.61l7.03,5s-3.42,5.18-6.02,13.42c-2.59,8.24-3.05,14.9-3.05,14.9l-8.33-.93s-2.41-11.57.74-19.07c3.15-7.5,9.63-13.33,9.63-13.33Zm68.03,28.88l-11.38-5.74-7.59,27.77s9.53,2.78,12.22.83c2.68-1.94,10-20.09,6.76-22.86Z"/>
    <path class="cls-2" d="m438.45,164.13s-14.35-1.85-19.9-.56c-5.55,1.3-9.9,6.02-15.73,4.26-5.83-1.76-18.89-14.03-18.89-14.03l2.92-9.22,51.6,19.55Z"/>
    <path class="cls-4" d="m279.2,100.36l-.65-5.76s-1.71-.03-2.71-1.02c-1.01-.99-.94-2.38-.94-2.38,0,0,3.47.83,4.3.76.83-.07,2.29-1.04,3.26-.76.97.28,1.81.97,1.81.97,0,0,2.36-.21,2.99.21.62.42.9,1.11.9,1.11,0,0,1.6-.14,2.15.42s.69,1.46.69,1.46c0,0,1.74.14,2.5,1.04s.34,3.96.34,3.96l-1.82-.68s-.26,4.45-1.37,4.75c-1.11.3-2.22-1.5-2.22-1.5,0,0-1.18.35-2.15,0-.97-.35-1.39-1.53-1.39-1.53,0,0-1.39.49-2.15.28-.76-.21-1.04-1.25-1.04-1.25,0,0-1.39,2.15-2.5-.07ZM111.56,40.52s8.61-5.14,11.73-7.91,4.51-5.18,10.27-4.81c5.76.37,9.37,8.68,9.37,8.68l-3.37-.28s-1.49,1.54-1.91,2.87c-.42,1.32.14,8.05-.28,8.82-.42.76-4.3.69-4.3.69,0,0,.02-8.79-.33-8.93-.35-.13-3.35,1.98-4.74,3.86-1.39,1.87-2.22,5.07-2.22,5.07,0,0-7.22-1.87-8.05-2.64s-1.25-1.42-1.25-1.42l4.93-6.84s-6.32,3.61-7.29,3.75c-.97.14-2.57-.9-2.57-.9Z"/>
    <path d="m118.41,46.86c-.11,0-.22-.03-.32-.1-.25-.18-.31-.52-.14-.77l5.72-8.14c.18-.25.52-.31.77-.14.25.18.31.52.14.77l-5.72,8.14c-.11.15-.28.24-.46.24Zm3.36,1.14c-.1,0-.21-.03-.3-.09-.26-.17-.33-.51-.16-.77l5.48-8.45c.17-.26.51-.33.77-.16.26.17.33.51.16.77l-5.48,8.45c-.11.17-.28.25-.47.25Zm159.94,52.98c-.05,0-.1,0-.15-.02-.29-.08-.46-.39-.38-.69l2.41-8.38c.08-.29.38-.47.69-.38.29.08.46.39.38.69l-2.41,8.38c-.07.24-.29.4-.53.4Zm3.19.97c-.07,0-.14-.01-.21-.04-.28-.12-.42-.44-.3-.73l3.26-7.91c.12-.28.44-.42.73-.3.28.12.42.44.3.73l-3.26,7.91c-.09.21-.3.34-.51.34Zm3.54,1.53c-.06,0-.12,0-.18-.03-.29-.1-.45-.41-.35-.7l2.57-7.57c.1-.29.42-.45.7-.35.29.1.45.41.35.7l-2.57,7.57c-.08.23-.29.38-.53.38Zm-9.88-8.33c-.27,0-.51-.2-.55-.47-.01-.1-.33-2.38,1.31-3.28.27-.14.6-.05.75.22.14.27.05.61-.22.75-.96.53-.75,2.13-.75,2.15.04.3-.17.58-.47.63-.03,0-.05,0-.08,0Z"/>
  </g>
  <g class="firstperson">
    <path class="cls-3" d="m119.47,99.05c.4-.36,13.77-21.02,13.77-21.02l-19.28-7.06-7.16,14.48,12.67,13.6Z"/>
    <path class="cls-6" d="m75.25,160.89l-3.05,44.61h37.39v-4.26l33.88-2.41-10.23-42.62s-21.65-7.55-33.75-3.85c-12.1,3.7-24.23,8.51-24.23,8.51Z"/>
    <path class="cls-8" d="m125.23,54.79s5.21-.11,5.48-1.78c.28-1.67-4.16,0-4.16,0,0,0,2.92-3.68,1.74-4.3-1.18-.62-4.37,3.04-4.37,3.04,0,0-13.68-4.98-17.22-4.71-3.54.28-3.75,6.25-3.75,6.25,0,0-7.22,3.54-7.64,6.87-.42,3.33,4.17,8.47,4.17,8.47,0,0,9,3.54,16.3-1.88,7.29-5.41,9.45-11.97,9.45-11.97Z"/>
    <path class="cls-4" d="m125.23,54.79s.65,12.62,1.48,13.82c.83,1.2,5.65,4.16,5.37,5-.28.83-5.57.25-6.16,1.75s.33,8.16-1.24,9.64c-1.57,1.48-9.07,0-9.07,0l-.46,14.44-14.44-12.5,2.96-12.51s-5-2.02-4.07-7.21,4.91-5.09,6.85-3.98,2.87,3.8,2.87,3.8c0,0,1.67.65,1.76-.74.09-1.39-.09-5-.09-5,0,0,4.16.19,4.26-.93.09-1.11-.83-2.87.09-4.35.93-1.48,9.91-1.23,9.91-1.23Z"/>
    <path class="cls-3" d="m75.25,160.89s3.89-41.93,2.78-45.54-13.61-71.64-12.77-75.53c.83-3.89,9.44-12.03,9.44-12.03l13.42,7.31s-2.87,4.72-2.87,6.11,11.94,38.23,11.94,38.23c0,0,16.85,7.22,26.1,26.29,9.26,19.07,12.77,49.61,12.77,49.61,0,0-11.48,3.61-18.05,5.55-6.57,1.94-13.79,3.33-13.79,3.33,0,0-2.41-8.98-2.68-8.7-.28.28-3.7,8.05-3.7,8.05,0,0-16.66-.65-22.58-2.69Z"/>
    <path class="cls-4" d="m74.7,27.79s20.46-16.2,22.4-16.66c1.94-.46,9.44.37,11.57,1.85,2.13,1.48,6.04,14.18,6.04,14.18l-14.07-5.64-12.52,13.58-13.42-7.31Z"/>
    <polygon class="cls-10" points="83.49 173.76 80.62 193.84 102.1 194.4 104.78 172.83 83.49 173.76"/>
    <polygon class="cls-11" points="91.82 184.31 82.7 179.33 83.49 173.76 104.78 172.83 103.86 180.22 91.82 184.31"/>
    <polygon class="cls-11" points="135.48 165.57 138.75 165.57 140.14 172.18 136.74 170.83 135.48 165.57"/>
    <polygon class="cls-10" points="140.14 184.96 143.47 184.96 140.14 172.18 136.74 170.83 140.14 184.96"/>
    <polygon class="cls-10" points="72.57 200.17 109.59 201.24 109.59 205.5 72.2 205.5 72.57 200.17"/>
    <polygon class="cls-10" points="109.59 196.16 109.59 201.24 143.47 198.84 142.4 194.4 109.59 196.16"/>
    <path class="cls-4" d="m80.62,205.5s-2.04,29.53-2.73,31.19c-.69,1.67-4.3,9.58-3.89,20.83.42,11.25,5.83,25.55,5.28,39.29s-4.86,24.71-3.33,27.21c1.53,2.5,46.93,0,46.93,0,0,0-1.53-4.58-4.44-4.58s-24.02-4.86-26.52-12.08c-2.5-7.22,7.64-66.09,7.64-70.67s5.23-31.19,5.23-31.19h-24.16Zm28.97-4.26s12.73,41.7,14.67,45.58c1.94,3.89.97,26.93,7.22,35.4s16.52,18.19,19.44,25.27c2.92,7.08,2.92,17.22,7.36,18.33s8.19-2.36,11.25-4.16c3.05-1.8,27.77-20.96,27.77-20.96,0,0-1.81-2.22-5.14-1.39-3.33.83-12.77,6.11-19.44,5.69s-14.58-5.14-15.55-7.77c-.97-2.64-19.98-97.94-19.98-97.94l-27.6,1.96Z"/>
    <path class="cls-10" d="m74.7,325.13s49.61-1.43,50.07-1.25c.46.19.83,3.8,0,3.98-.83.19-49.52,1.76-50.07,1.3s-1.4-3.99,0-4.03Zm124.47-26.03s-38.6,28.32-38.8,29.22,2.64,3.19,4.1,2.57c1.46-.62,37.07-28.11,37.49-29.23.42-1.11-2.34-2.89-2.78-2.57Z"/>
    <path class="cls-10" d="m91.91,326.56h8.26s1.46-4.75,4.51-6.77c3.05-2.01,6.4-1.8,6.4-1.8,0,0-2.27-3.08-5.43-2.95-3.16.12-12.56,5.31-13.74,11.52Zm86.22-8.92l6.04-4.44s-1.18-4.03-1.32-6.46,2.75-4.87,2.75-4.87c0,0-3.55-1.2-6.36.84-2.81,2.04-3.05,11.8-1.11,14.92Z"/>
    <polygon class="cls-11" points="80.13 212.4 104.78 205.5 80.62 205.5 80.13 212.4"/>
    <polygon class="cls-11" points="109.59 201.24 112.13 209.49 137.19 199.29 109.59 201.24"/>
    <path d="m109.59,196.71s-.03,0-.05,0c-.3-.03-.53-.3-.5-.6l1.9-20.41c.01-.13.07-.25.16-.34l10.14-10.18c.21-.21.57-.22.79,0,.22.21.22.57,0,.79l-9.99,10.03-1.88,20.21c-.03.29-.27.5-.55.5Zm-15.86,46.93c-.13,0-.26-.04-.36-.13-.23-.2-.26-.55-.06-.78l3.45-4.03c.2-.23.55-.26.78-.06.23.2.26.55.06.78l-3.45,4.03c-.11.13-.27.19-.42.19Zm68.81,71.96c-1.47,0-2.55-1.7-2.67-1.9-.16-.26-.08-.6.19-.76.26-.16.6-.08.76.18.23.37,1.06,1.43,1.78,1.37,1.12-.09,2.34-.74,2.35-.75.27-.15.61-.05.75.23.14.27.05.6-.23.75-.06.03-1.44.77-2.79.88-.05,0-.1,0-.15,0Zm-78.41,2.09c-.23,0-1.25-.1-2.07-1.74-.9-1.81.05-2.85.09-2.9.21-.22.56-.23.79-.02.22.21.23.55.03.78-.03.04-.45.58.08,1.64.54,1.08,1.07,1.13,1.08,1.13h.03c.29,0,.52.23.54.52.02.31-.23.57-.54.59,0,0-.02,0-.04,0Zm13.61-232.97c-.28,0-.52-.21-.55-.49l-.56-4.72c-.04-.31.18-.58.49-.62.3-.04.58.18.62.49l.56,4.72c.04.31-.18.58-.49.62-.02,0-.04,0-.07,0Zm9.35-16.06c-.19,0-.38-.1-.48-.28-.02-.04-.62-1.02-1.92-1.02s-2.08,1.04-2.08,1.05c-.18.25-.52.32-.77.15s-.32-.52-.15-.77c.04-.06,1.07-1.54,3.01-1.54s2.85,1.51,2.89,1.58c.15.27.06.6-.21.76-.09.05-.18.07-.28.07Z"/>
    <path d="m103.53,71.9c-.13,0-.27-.05-.38-.15-.23-.21-.24-.56-.03-.79,0,0,.86-.95.94-2.07.08-1.07-.39-1.64-.41-1.67-.2-.23-.17-.58.06-.78.23-.2.58-.18.78.05.03.04.8.92.68,2.48-.11,1.52-1.19,2.69-1.23,2.74-.11.12-.26.18-.41.18Zm17.86,6.3c-.44,0-1-.03-1.68-.11-2.21-.26-3.31-1.79-3.36-1.85-.18-.25-.12-.6.14-.77.25-.17.6-.12.77.13h0s.87,1.19,2.57,1.39c1.81.21,2.61.01,2.61.01.31-.08.6.1.68.4.08.29-.09.6-.39.68-.06.02-.48.12-1.35.12Zm-20.75-56.12c-.17,0-.34-.08-.44-.22-.18-.25-.13-.6.11-.78l2.89-2.15c.25-.18.6-.13.78.11.18.25.13.6-.11.78l-2.89,2.15c-.1.07-.22.11-.33.11Zm21.12,43.85c-.23,0-.45-.15-.53-.38h0s-.2-.45-1.13-.76c-.98-.33-1.95.18-1.96.19-.26.14-.6.06-.75-.21-.15-.27-.06-.6.21-.75.06-.03,1.39-.76,2.85-.27,1.47.49,1.8,1.36,1.83,1.46.1.29-.06.6-.35.7-.06.02-.12.03-.18.03Z"/>
  </g>
  <g class="secondperson">
    <path class="cls-3" d="m248.23,96.84s-3.78-1.11-6-3.79-1.94-5.65-1.94-5.65c0,0-5.17-2.66-5.18-5.92-.01-3.26,2.04-5.28,2.04-5.28,0,0-7.87-5.46-7.22-12.4s4.81-7.77,4.81-7.77c0,0-1.81-11.11,4.32-14.99s12.24-1.39,12.24-1.39c0,0-.19-1.94,5-2.13,5.18-.19,6.48,3.7,6.48,3.7,0,0,7.13-1.2,11.29,1.76s4.07,5.09,4.07,5.09c0,0,6.47,3.61,6.29,11.85-.18,8.24-3.88,10.18-3.88,10.18,0,0,1.2,7.27-1.02,9.61s-5.65,1.96-5.65,1.96c0,0,1.3,5.18.19,7.03s-3.01,2.45-3.01,2.45l-22.83,5.69Z"/>
    <path class="cls-4" d="m269.9,81.01s.01,7.77.56,9.26c.54,1.48,3.42,2.59,2.59,3.52-.83.93-3.89.28-4.16,1.3-.28,1.02.46,3.98-2.78,5.46-3.24,1.48-7.13,0-7.13,0v7.22l-14.82,1.39,5.85-17.68s-4.42-3.08-4.44-6.2c-.02-3.12,2.31-5.83,4.35-5.55s3.89,3.33,3.89,3.33c0,0,3.39.74,4.52-.19s1.96-2.59,1.96-2.59c0,0,1.76,1.3,3.33.93s2.41-1.5,2.41-1.5c0,0,1.29,1.69,3.89,1.32Z"/>
    <path class="cls-12" d="m224.36,265.85l87.74-3.05s-2.96-34.99-4.95-56.92c-1.99-21.94-16.71-68.31-16.71-68.31l4.44-4.81s-27.03-28.69-40.63-28.32c-13.61.37-19.34,17.86-25.73,53.68-6.39,35.82-4.17,107.74-4.17,107.74Z"/>
    <g class="cls-7">
      <g>
        <path class="cls-3" d="m216.68,352.51s-2.02-3.51-6.55-6.48c-4.53-2.97-14.06-1.14-14.06-1.14l20.6,7.62Zm-.59,1.17l-20.3-7.04s2.33,4.61,7.48,6.69c5.15,2.08,12.82.35,12.82.35Zm42.31-58.84s-2.02-3.51-6.55-6.48c-4.53-2.97-14.06-1.14-14.06-1.14l20.6,7.62Zm-.59,1.17l-20.3-7.04s2.32,4.61,7.48,6.69c5.15,2.08,12.82.35,12.82.35Zm-15.09,95.84s-2.02-3.51-6.55-6.48c-4.53-2.97-14.06-1.14-14.06-1.14l20.6,7.62Zm-.59,1.17l-20.3-7.04s2.33,4.61,7.48,6.69c5.15,2.08,12.82.35,12.82.35Zm-10.44-151.49s-2.02-3.51-6.55-6.48c-4.53-2.97-14.06-1.14-14.06-1.14l20.6,7.62Zm-.59,1.17l-20.3-7.04s2.33,4.61,7.48,6.69c5.15,2.08,12.82.35,12.82.35Zm87.81,120.1s-2.02-3.51-6.55-6.48c-4.53-2.97-14.06-1.14-14.06-1.14l20.6,7.62Zm-.59,1.17l-20.3-7.04s2.33,4.61,7.48,6.69c5.15,2.08,12.82.35,12.82.35Zm42.75-18.06s-2.02-3.51-6.55-6.48c-4.53-2.97-14.06-1.14-14.06-1.14l20.6,7.62Zm-.59,1.17l-20.3-7.04s2.33,4.61,7.48,6.69c5.15,2.08,12.82.35,12.82.35Zm-176.48-102.39s-2.02-3.51-6.55-6.48c-4.53-2.97-14.06-1.14-14.06-1.14l20.6,7.62Zm-.59,1.17l-20.3-7.04s2.33,4.61,7.48,6.69c5.15,2.08,12.82.35,12.82.35Zm193.42,6.7s-2.02-3.51-6.55-6.48c-4.53-2.97-14.06-1.14-14.06-1.14l20.6,7.62Zm-.59,1.17l-20.3-7.04s2.33,4.61,7.48,6.69c5.15,2.08,12.82.35,12.82.35Zm-151.18,92.05s4.05-.2,8.75-2.88c4.7-2.68,7.41-12,7.41-12l-16.16,14.88Zm-.77-1.06l15.5-14.87s-5.17-.03-9.36,3.61c-4.19,3.64-6.14,11.26-6.14,11.26Zm50.09-6.9s4.05-.2,8.75-2.88c4.7-2.68,7.41-12,7.41-12l-16.16,14.88Zm-.77-1.05l15.5-14.87s-5.17-.03-9.36,3.61c-4.19,3.64-6.14,11.26-6.14,11.26Zm46.98-16.29s4.05-.2,8.75-2.88c4.71-2.68,7.41-12,7.41-12l-16.16,14.88Zm-.77-1.06l15.5-14.87s-5.17-.03-9.36,3.61c-4.19,3.64-6.14,11.26-6.14,11.26Zm-61.03,7.98s.58-4.01-1.15-9.14-10.36-9.57-10.36-9.57l11.51,18.71Zm-1.18.55l-11.63-18.06s-1.02,5.06,1.75,9.88c2.77,4.82,9.88,8.19,9.88,8.19Zm31.49,76.88s.58-4.01-1.15-9.14c-1.73-5.13-10.36-9.57-10.36-9.57l11.51,18.71Zm-1.18.56l-11.63-18.06s-1.02,5.06,1.75,9.88c2.77,4.82,9.88,8.19,9.88,8.19Zm-68.37-118.65s.58-4.01-1.15-9.14-10.36-9.57-10.36-9.57l11.51,18.71Zm-1.18.55l-11.63-18.06s-1.02,5.06,1.75,9.88c2.77,4.82,9.88,8.19,9.88,8.19Zm-38.64,11.34s.58-4.01-1.15-9.14c-1.73-5.13-10.36-9.57-10.36-9.57l11.51,18.71Zm-1.18.55l-11.63-18.06s-1.02,5.06,1.75,9.88c2.77,4.82,9.88,8.19,9.88,8.19Zm24.24,90.03s.58-4.01-1.15-9.14c-1.73-5.13-10.36-9.57-10.36-9.57l11.51,18.71Zm-1.18.56l-11.63-18.06s-1.02,5.06,1.75,9.88c2.77,4.81,9.88,8.19,9.88,8.19Zm99.21-117.45s.58-4.01-1.15-9.14c-1.73-5.13-10.36-9.57-10.36-9.57l11.51,18.71Zm-1.18.56l-11.63-18.06s-1.02,5.06,1.75,9.88c2.77,4.81,9.88,8.19,9.88,8.19Zm-86.58,32.03s-3.27-2.39-8.61-3.27c-5.34-.88-13.31,4.66-13.31,4.66l21.93-1.38Zm-.07,1.31l-21.41,1.79s4,3.28,9.55,3.09c5.55-.19,11.86-4.88,11.86-4.88Zm96.91-11.02s-3.27-2.39-8.61-3.27c-5.34-.88-13.31,4.66-13.31,4.66l21.93-1.38Zm-.07,1.3l-21.41,1.79s4,3.28,9.55,3.09c5.55-.19,11.86-4.88,11.86-4.88Zm34.99-22.81s-3.27-2.39-8.61-3.27c-5.34-.88-13.31,4.66-13.31,4.66l21.93-1.38Zm-.07,1.3l-21.41,1.79s4,3.28,9.55,3.09c5.55-.19,11.86-4.88,11.86-4.88Zm-3.98,120.28s-3.27-2.39-8.61-3.27c-5.34-.88-13.31,4.66-13.31,4.66l21.93-1.38Zm-.07,1.31l-21.41,1.79s4,3.28,9.55,3.09c5.55-.19,11.86-4.88,11.86-4.88Zm-162.21-58.2s-3.27-2.39-8.61-3.27c-5.34-.88-13.31,4.66-13.31,4.66l21.93-1.38Zm-.07,1.3l-21.41,1.79s4,3.28,9.55,3.09c5.55-.19,11.86-4.88,11.86-4.88Zm92.01,25.91s-3.27-2.39-8.61-3.27c-5.34-.88-13.31,4.66-13.31,4.66l21.93-1.38Zm-.06,1.3l-21.41,1.79s4,3.28,9.55,3.09c5.55-.19,11.86-4.88,11.86-4.88Zm3.96,44.04s-3.27-2.39-8.61-3.27c-5.34-.88-13.31,4.66-13.31,4.66l21.93-1.38Zm-.07,1.31l-21.41,1.79s4,3.28,9.55,3.09c5.55-.19,11.86-4.88,11.86-4.88Zm-10.86-157.98s-3.27-2.39-8.61-3.27c-5.34-.88-13.31,4.66-13.31,4.66l21.93-1.38Zm-.06,1.31l-21.41,1.79s4,3.28,9.55,3.09c5.55-.19,11.86-4.88,11.86-4.88Zm-37.51-80.87s-2.02-3.51-6.55-6.48c-4.53-2.97-14.06-1.14-14.06-1.14l20.6,7.62Zm-.59,1.17l-20.3-7.04s2.33,4.61,7.48,6.69c5.15,2.08,12.82.35,12.82.35Zm42.31-58.84s-2.02-3.51-6.55-6.48c-4.53-2.97-14.06-1.14-14.06-1.14l20.6,7.62Zm-.59,1.17l-20.3-7.04s2.33,4.61,7.48,6.69c5.15,2.08,12.82.35,12.82.35Zm-15.09,95.84s-2.02-3.51-6.55-6.48c-4.53-2.97-14.06-1.14-14.06-1.14l20.6,7.62Zm-.59,1.17l-20.3-7.04s2.33,4.61,7.48,6.69c5.15,2.08,12.82.35,12.82.35Zm-16.52-147.14s-2.02-3.51-6.55-6.48c-4.53-2.97-14.06-1.14-14.06-1.14l20.6,7.62Zm-.59,1.17l-20.3-7.04s2.33,4.61,7.48,6.69c5.15,2.08,12.82.35,12.82.35Zm93.89,115.76s-2.02-3.51-6.55-6.48c-4.53-2.97-14.06-1.14-14.06-1.14l20.6,7.62Zm-.59,1.17l-20.3-7.04s2.33,4.61,7.48,6.69c5.15,2.08,12.82.35,12.82.35Zm42.75-18.06s-2.02-3.51-6.55-6.48c-4.53-2.97-14.06-1.14-14.06-1.14l20.6,7.62Zm-.59,1.17l-20.3-7.04s2.33,4.61,7.48,6.69c5.15,2.08,12.82.35,12.82.35Zm-135.42-1.3s4.05-.2,8.75-2.88c4.71-2.68,7.41-12,7.41-12l-16.16,14.88Zm-.77-1.06l15.5-14.87s-5.17-.03-9.36,3.61c-4.19,3.64-6.14,11.26-6.14,11.26Zm-70.25,39.4s4.05-.2,8.75-2.88c4.71-2.68,7.41-12,7.41-12l-16.16,14.88Zm-.77-1.05l15.5-14.87s-5.17-.03-9.36,3.61c-4.19,3.64-6.14,11.26-6.14,11.26Zm121.1-45.25s4.05-.2,8.75-2.88c4.7-2.68,7.41-12,7.41-12l-16.16,14.88Zm-.77-1.06l15.5-14.87s-5.17-.03-9.36,3.61c-4.19,3.64-6.14,11.26-6.14,11.26Zm46.98-16.29s4.05-.2,8.75-2.88c4.71-2.68,7.41-12,7.41-12l-16.16,14.88Zm-.77-1.05l15.5-14.87s-5.17-.03-9.36,3.61c-4.19,3.64-6.14,11.26-6.14,11.26Zm-15.94,112.94s4.05-.2,8.75-2.88,7.41-12,7.41-12l-16.16,14.88Zm-.77-1.05l15.5-14.87s-5.17-.03-9.36,3.61c-4.19,3.64-6.14,11.26-6.14,11.26Zm-44.32-103.91s.58-4.01-1.15-9.14c-1.73-5.13-10.36-9.57-10.36-9.57l11.51,18.71Zm-1.18.56l-11.63-18.06s-1.02,5.06,1.75,9.88c2.77,4.81,9.88,8.19,9.88,8.19Zm31.49,76.88s.58-4.01-1.15-9.14c-1.73-5.13-10.36-9.57-10.36-9.57l11.51,18.71Zm-1.18.55l-11.63-18.06s-1.02,5.06,1.75,9.88c2.77,4.82,9.88,8.19,9.88,8.19Z"/>
        <path class="cls-3" d="m228.71,108.9s.58-4.01-1.15-9.14c-1.73-5.13-10.36-9.57-10.36-9.57l11.51,18.71Zm-1.18.56l-11.63-18.06s-1.02,5.06,1.75,9.88c2.77,4.81,9.88,8.19,9.88,8.19Z"/>
        <path class="cls-3" d="m188.88,120.79s.58-4.01-1.15-9.14c-1.73-5.13-10.36-9.57-10.36-9.57l11.51,18.71Zm-1.18.56l-11.63-18.06s-1.02,5.06,1.75,9.88c2.77,4.81,9.88,8.19,9.88,8.19Z"/>
        <path class="cls-3" d="m211.94,211.38s.58-4.01-1.15-9.14c-1.73-5.13-10.36-9.57-10.36-9.57l11.51,18.71Zm-1.18.56l-11.63-18.06s-1.02,5.06,1.75,9.88c2.77,4.81,9.88,8.19,9.88,8.19Z"/>
        <path class="cls-3" d="m309.97,94.48s.58-4.01-1.15-9.14c-1.73-5.13-10.36-9.57-10.36-9.57l11.51,18.71Zm-1.18.55l-11.63-18.06s-1.02,5.06,1.75,9.88c2.77,4.82,9.88,8.19,9.88,8.19Z"/>
        <path class="cls-3" d="m222.2,127.07s-3.27-2.39-8.61-3.27c-5.34-.88-13.31,4.65-13.31,4.65l21.93-1.38Zm-.06,1.3l-21.41,1.79s4,3.28,9.55,3.09c5.55-.19,11.86-4.88,11.86-4.88Z"/>
        <path class="cls-3" d="m319.05,117.35s-3.27-2.39-8.61-3.27c-5.34-.88-13.31,4.65-13.31,4.65l21.93-1.38Zm-.07,1.31l-21.41,1.79s4,3.28,9.55,3.09c5.55-.19,11.86-4.88,11.86-4.88Z"/>
        <path class="cls-3" d="m353.97,95.84s-3.27-2.39-8.61-3.27c-5.34-.88-13.31,4.65-13.31,4.65l21.93-1.38Zm-.07,1.31l-21.41,1.79s4,3.28,9.55,3.09c5.55-.19,11.86-4.88,11.86-4.88Z"/>
        <path class="cls-3" d="m349.93,217.43s-3.27-2.39-8.61-3.27c-5.34-.88-13.31,4.66-13.31,4.66l21.93-1.38Zm-.06,1.3l-21.41,1.79s4,3.28,9.55,3.09c5.55-.19,11.86-4.88,11.86-4.88Z"/>
        <path class="cls-3" d="m187.66,160.53s-3.27-2.39-8.61-3.27c-5.34-.88-13.31,4.66-13.31,4.66l21.93-1.38Zm-.07,1.31l-21.41,1.79s4,3.28,9.55,3.09c5.55-.19,11.86-4.88,11.86-4.88Z"/>
        <path class="cls-3" d="m279.61,187.74s-3.27-2.39-8.61-3.27c-5.34-.88-13.31,4.66-13.31,4.66l21.93-1.38Zm-.06,1.31l-21.41,1.79s4,3.28,9.55,3.09c5.55-.19,11.86-4.88,11.86-4.88Z"/>
        <path class="cls-3" d="m283.5,233.09s-3.27-2.39-8.61-3.27c-5.34-.88-13.31,4.65-13.31,4.65l21.93-1.38Zm-.07,1.3l-21.41,1.79s4,3.28,9.55,3.09c5.55-.19,11.86-4.88,11.86-4.88Z"/>
        <path class="cls-3" d="m272.58,76.41s-3.27-2.39-8.61-3.27c-5.34-.88-13.31,4.66-13.31,4.66l21.93-1.38Zm-.06,1.31l-21.41,1.79s4,3.28,9.55,3.09c5.55-.19,11.86-4.88,11.86-4.88Z"/>
      </g>
    </g>
    <path class="cls-11" d="m290.45,137.57s-20.69,25.27-19.72,28.04c.97,2.78,10.83-5.09,10.83-5.09l-4.03-4.12,12.91-18.83Z"/>
    <path class="cls-4" d="m355.18,125.49s.24-3.61-.66-4.31-2.36-.83-2.36-.83c0,0-.62-1.74-1.67-1.81-1.04-.07-2.5,0-2.5,0,0,0-1.32-1.39-2.22-1.39s-2.22.49-2.22.49c0,0-.97-1.04-1.67-1.18-.69-.14-1.39,0-1.39,0,0,0-.69-5-2.22-5.76-1.53-.76-3.33,0-3.33,0,0,0,1.28,5.86,1.19,7.82-.08,1.96-4.39,7.73-6.19,9.88s-22.57,12.03-24.69,12.59-13.43-4.92-13.43-4.92l-14.29,20.32,4.03,4.12s8.51,7.59,14.72,8.15c6.2.56,16.2-5.28,21.2-8.98,5-3.7,21.7-24.2,23.09-25.04s11.53-10.29,11.53-10.29l3.09,1.13Zm-67.09,202.84c-2.22-.14-17.17-4.03-20.04-10.69s7.96-53.58,7.96-53.58l-37.2,1.29s-3.07,42.99-4.87,50.76-2.92,10.14-2.08,12.36,3.34,2.92,3.34,2.92h18.6s.14,1.11,1.25,1.53c1.11.42,36.65-1.25,36.65-1.25,0,0-1.39-3.19-3.61-3.33Zm-39.15-12.91c-.83-3.05,3.89-16.9,3.89-16.9l1.67,23.15s-4.72-3.19-5.55-6.25Z"/>
    <polygon class="cls-11" points="275.28 267.29 251.67 271.77 251.67 267.98 238.34 271.77 238.81 265.35 276.01 264.05 275.28 267.29"/>
    <polygon class="cls-6" points="235.2 331.38 231.24 331.38 231.58 334.16 254.49 334.51 253.8 331.38 235.2 331.38"/>
    <polygon class="cls-6" points="291.7 331.66 292.46 334.92 253.1 336.17 254.05 332.52 291.7 331.66"/>
    <path class="cls-6" d="m243.94,332.94l3.96.03s-.07-3.75,2.15-6.66,4.44-4.65,4.44-4.65l-2.02-1.58s-4.99,1.65-7.49,4.57-1.04,8.29-1.04,8.29Zm25.27,1.56l5.21-.59s-.28-3.51,1.74-5.45,5.05-1.94,5.05-1.94c0,0-.47-1.46-2.9-2.09-2.43-.62-7.08,1.86-8.4,5.03-1.32,3.17-.69,5.03-.69,5.03Z"/>
    <path d="m270.74,166.17c-.14,0-.29-.06-.4-.17-.09-.09-8.98-9.18-15.49-17.07-6.54-7.92-12.15-19.9-12.2-20.02-.13-.28,0-.61.27-.74.28-.13.61,0,.74.27.06.12,5.6,11.97,12.05,19.78,6.48,7.85,15.34,16.91,15.43,17,.21.22.21.57,0,.79-.11.11-.25.16-.39.16Zm-18.05-80.29c-.23,0-.44-.14-.52-.36-.01-.03-.4-.96-1.76-1.22-1.33-.26-1.97.71-1.97.73-.17.26-.52.33-.77.17-.26-.16-.33-.51-.17-.77.04-.07,1.06-1.61,3.12-1.22,2,.38,2.57,1.87,2.59,1.93.11.29-.04.61-.33.71-.06.02-.13.03-.19.03Z"/>
    <path d="m250,88.42c-.2,0-.38-.1-.49-.29-.15-.27-.05-.6.21-.75.05-.03.97-.56.79-1.38-.23-1.04-1.24-1.86-1.25-1.87-.24-.19-.28-.54-.08-.78.19-.24.54-.28.78-.09.05.04,1.32,1.07,1.64,2.49.36,1.64-1.27,2.56-1.34,2.6-.09.05-.18.07-.27.07Zm8.98,12.68c-.1,0-.2-.03-.28-.08l-3.93-2.34c-.26-.16-.35-.5-.19-.76.16-.27.5-.35.76-.19l3.93,2.34c.26.16.35.5.19.76-.1.17-.29.27-.48.27Zm-6.15,197.97c-.29,0-.54-.23-.56-.53l-1.16-26.74c-.01-.31.23-.57.53-.58.27-.03.57.22.58.53l1.16,26.74c.01.31-.23.57-.53.58h-.02Zm1.22,34.01s-.04,0-.06,0c-.72-.08-1.29-.45-1.65-1.06-1.57-2.68,1.31-9.76,1.64-10.57.12-.28.44-.42.73-.3.28.12.42.44.3.73-.85,2.03-2.81,7.71-1.71,9.57.18.31.44.48.82.52.3.03.52.31.49.61-.03.28-.27.49-.55.49Zm18.21-244.15h-6.29c-.08,0-.15-.01-.22-.05l-12.17-5.32c-.28-.12-.41-.45-.29-.73.12-.28.44-.4.73-.29l12.07,5.28h6.18c.31,0,.56.25.56.56s-.25.55-.56.55Z"/>
    <path class="cls-1" d="m268.05,88.71c0,2.64-.85,4.78-1.9,4.78s-1.9-2.14-1.9-4.78.85-4.78,1.9-4.78,1.9,2.14,1.9,4.78Z"/>
    <path d="m266.15,94.04c-1.61,0-2.45-2.68-2.45-5.33s.84-5.33,2.45-5.33,2.45,2.68,2.45,5.33c0,2.65-.84,5.33-2.45,5.33Zm0-9.56c-.46,0-1.34,1.49-1.34,4.22s.89,4.22,1.34,4.22,1.34-1.49,1.34-4.22c0-2.73-.88-4.22-1.34-4.22Z"/>
    <path class="cls-1" d="m275.1,88.37c0,2.64-.85,4.78-1.9,4.78s-1.9-2.14-1.9-4.78.85-4.78,1.9-4.78,1.9,2.14,1.9,4.78Z"/>
    <path d="m273.2,93.7c-1.61,0-2.45-2.68-2.45-5.33s.84-5.33,2.45-5.33,2.45,2.68,2.45,5.33-.84,5.33-2.45,5.33Zm0-9.56c-.46,0-1.34,1.49-1.34,4.22s.88,4.22,1.34,4.22,1.34-1.49,1.34-4.22-.88-4.22-1.34-4.22Z"/>
    <path d="m266.98,96.73c-.32,0-.71-.02-1.19-.1-1.44-.22-2.99-1.14-3.05-1.18-.26-.16-.35-.5-.19-.76.16-.27.5-.35.76-.19.01,0,1.42.85,2.64,1.04,1.16.18,1.68.02,1.69.02.29-.09.6.07.7.35.09.29-.05.6-.34.7-.05.02-.38.12-1.03.12Z"/>
  </g>
  <g class="thirdperson">
    <path class="cls-10" d="m848.28,314.81h-16.1l-1.65-120.33s11.79-8.87,21.63-7.97c9.84.89,25.67,9.97,25.67,9.97l6.98,114.61-14.09.56-16.77-100.31-5.67,103.48Z"/>
    <path class="cls-3" d="m859.76,80.87s1.04-3.35,5.96-3.5,12.37,3.28,13.64,6.49c1.27,3.21,0,5,0,5,0,0,3.58,1.04,2.91,4.03-.67,2.98-3.71,5.41-3.71,5.41,0,0-8.83,1.3-13.18-3.24-4.35-4.55-5.47-12.75-5.62-14.17Z"/>
    <path class="cls-2" d="m791.03,64.02l4.47,1.64s19.83,29.52,20.28,29.82c.45.3,37.05,17.97,37.05,17.97l19.53,5.59s14.24,6.41,15.8,7.53c1.57,1.12,17.67,37.35,17.78,38.69.11,1.34,2.57,25.16,2.01,27.17-.56,2.01-2.13,3.8-2.13,3.8h-10.96s-.89-2.91-.89-4.7-1.23-20.69-1.23-20.69l-9.84-12.52s-1.57,5.7-1.57,6.6,2.46,28.63,2.46,28.63c0,0-17.33,8.72-19.46,8.39-2.13-.33-14.81-10.96-14.81-10.96l-3.41,10.51s-18.67-8.16-19.57-9.06,1.01-23.45,2.8-33.29c1.79-9.84,4.32-28.4,4.32-28.4,0,0-27.58-20.39-29.04-22.18-1.45-1.79-18.79-32.32-19.23-33.44s-.89-5.48-.89-5.48l6.52-5.62Z"/>
    <path class="cls-4" d="m859.76,80.87s-5.82,3.8-8.2,11.41c-2.39,7.6-1.12,13.94.45,15.58s3.35,1.79,3.35,1.79l-.36,7.45,3.34,11.85,9.84-12.75s-1.04-5.74,0-7.45,2.24-2.83,2.24-2.83c0,0,3.65,1.57,6.56-1.71s2.24-5.89.67-6.86c-1.57-.97-4.17-.52-3.95-.45.22.07-4.7-4.03-4.77-6.34s3.21-5.59,3.5-7.9c.3-2.31-7.01.45-9.69-.07-2.68-.52-2.98-1.71-2.98-1.71Z"/>
    <path class="cls-10" d="m872.36,119.04l-7.74,13.57-2.1-5.44-4.18,1.79,9.84-12.75-.33-2.44s3.16-.02,3.99.5c.82.52.52,4.77.52,4.77Zm-17.14-6.49s-2.02.37-2.39.89c-.37.52-1.04,2.01-1.04,2.01l-.97,15.28,5-4.62,2.54,2.83-3.34-11.85.22-4.55Z"/>
    <path class="cls-3" d="m871.02,94.18s-5,6.22-7.74,7.01-3.58-.56-3.8-1.96c-.22-1.4-1.06-2.63-2.4-3.13-1.34-.5-6.43-.08-6.43-.08,0,0-1.79,2.32-1.29,6.85.5,4.53,2.67,6.3,6,6.78s10.04-1.3,12.28-3.82c2.24-2.52,6.06-8.93,6.06-8.93l-2.68-2.72Z"/>
    <path class="cls-4" d="m853.13,98.28c1.01.01,3.54.22,3.84.71.3.48-.22,4.36-.71,4.62-.48.26-3.95.41-4.17-.86-.22-1.27-.18-4.49,1.04-4.47Z"/>
    <polygon class="cls-3" points="922.98 165.26 922.98 208.22 873.63 215.32 872.41 174.65 922.98 165.26"/>
    <polygon class="cls-2" points="791.03 64.02 786.57 59.14 780.2 64.73 784.5 69.65 791.03 64.02"/>
    <path class="cls-2" d="m892.75,170.85l13.19-5.59s2.29,23.93,2.1,26.47c-.2,2.54-2.21,4.51-2.21,4.51h-10.96s-1.04-2.57-1.19-4.21c-.15-1.64-.93-21.17-.93-21.17Z"/>
    <polygon class="cls-2" points="905.83 196.24 905.83 201.12 895.62 201.12 894.87 196.24 905.83 196.24"/>
    <path class="cls-4" d="m905.83,201.12s-.67,11.67-1.23,12.45-2.74,1.57-3.47,1.73-8.39-2.74-8.39-2.74c0,0,2.85-.12,3.13-.68s.11-3.67.11-3.67c0,0-3.47,1.83-4.53,1.77-1.06-.06-2.29-1.17-2.29-1.17,0,0,3.86-3.24,4.98-4.31,1.12-1.06,1.47-3.39,1.47-3.39h10.22Z"/>
    <polygon class="cls-12" points="922.98 179.72 917.61 180.75 917.61 197.54 922.98 196.72 922.98 179.72"/>
    <polygon class="cls-12" points="872.41 174.65 870.27 175.92 871.34 213.42 873.63 215.32 872.41 174.65"/>
    <path class="cls-13" d="m888.54,338.81s-16.48,1.42-17.22,1.04,3.65-8.76,3.65-8.76c0,0,1.04-1.83,3.95-2.27,2.91-.45,7.46,2.27,7.46,2.27,0,0,2.91,7.12,2.16,7.72Z"/>
    <path class="cls-10" d="m874.59,144.31l-13.49-.74s-1.42,10.66-1.19,11.56c.22.89,3.37,4.4,4.71,4.55,1.33.15,7.3-1.49,8.12-2.91.82-1.42,1.86-12.45,1.86-12.45Z"/>
    <path class="cls-4" d="m883.58,311.13l2.8,19.97s-3.13-1.34-6.49-.89c-3.35.45-4.92.89-4.92.89l-1.9-19.55,10.51-.42Z"/>
    <path class="cls-11" d="m889.65,342.62s-18.86.97-18.93.45c-.07-.52.6-3.21.6-3.21l17.22-1.04s2.62,3.73,1.12,3.8Z"/>
    <path class="cls-13" d="m847.91,341.79l-.75-9.69-18.19-2.54s-20.65,9.02-21.84,9.91c-1.19.89-1.19,1.86-1.19,1.86l41.97.45Z"/>
    <path class="cls-4" d="m847.16,314.81v17.3l-14.39,2.24s-.37-2.54-1.57-3.59-2.24-1.19-2.24-1.19c0,0,2.83-4.47,3.21-6.41s.75-8.35.75-8.35h14.24Z"/>
    <polygon class="cls-11" points="805.56 344.03 805.93 341.35 847.91 341.79 847.91 344.03 805.56 344.03"/>
    <path class="cls-4" d="m786.57,59.14s-6.44-7.3-7.9-7.58c-1.46-.28-11.94.21-12.63.49-.69.28-1.18.69-1.18.69l8.05,6.4s-6.8-.29-8.05.47-1.32,2.29-1.32,2.29c0,0,8.47,2.49,10.07,2.49s6.6.33,6.6.33l6.37-5.59Z"/>
    <path d="m882.91,158.88c-.21,0-.41-.12-.51-.33-.15-.33-3.66-8.23-3.1-15.04.56-6.82,8.1-16.86,8.42-17.29.18-.25.53-.29.78-.11.25.18.29.53.11.78-.08.1-7.66,10.21-8.2,16.71-.53,6.52,2.97,14.41,3.01,14.49.13.28,0,.61-.28.73-.07.03-.15.05-.23.05Zm-33.37,32.65s-.03,0-.04,0c-.31-.02-.54-.29-.51-.59.01-.16,1.14-16.09,2.44-29,1.31-12.94,6.33-32.92,6.38-33.13.08-.3.39-.48.67-.4.3.07.48.38.4.67-.05.2-5.05,20.11-6.35,32.97-1.31,12.89-2.43,28.8-2.44,28.96-.02.29-.27.52-.55.52Zm4.41,20.35c-.31,0-.55-.25-.55-.56v-5.98s-3.61-5.13-3.61-5.13c-.18-.25-.12-.6.14-.77.25-.17.6-.12.77.14l3.7,5.28c.07.09.1.2.1.32v6.15c0,.31-.24.56-.55.56h0Z"/>
    <polygon class="cls-11" points="832.72 317.78 847.16 317.78 847.16 314.81 832.92 314.81 832.72 317.78"/>
    <polygon class="cls-11" points="873.67 317.78 883.58 311.13 873.07 311.55 873.67 317.78"/>
    <path d="m833.67,131.3s-.08,0-.12-.01c-.3-.07-.49-.36-.42-.66l.93-4.18c.07-.3.35-.48.66-.42.3.07.49.36.42.66l-.93,4.18c-.06.26-.29.43-.54.43Zm38.44-29.49c-.1,0-.2-.03-.29-.08-.26-.16-.34-.5-.18-.76.04-.06.98-1.54,2.95-1.62,2.12-.05,2.64,1.43,2.66,1.5.1.29-.05.6-.34.71-.29.09-.6-.05-.71-.34-.03-.07-.34-.84-1.57-.75-1.37.06-2.02,1.05-2.05,1.1-.11.16-.29.26-.47.26Z"/>
    <path d="m873.01,103.76c-.18,0-.36-.09-.46-.25-.11-.16-.12-.35-.05-.52,0-.03,0-.07,0-.11.02-.42.07-1.2.57-1.94.68-1,2.08-1.44,2.23-1.48.31-.09.6.08.69.37.09.29-.08.6-.37.69-.32.1-1.24.47-1.63,1.05-.33.48-.36,1.04-.38,1.38-.01.27-.03.54-.29.72-.1.06-.2.09-.31.09Zm.69-6.3c-.09,0-.18-.02-.26-.07l-12.22-6.54-9.87-3.79c-.29-.11-.43-.43-.32-.72.11-.29.43-.44.72-.32l9.93,3.82,12.28,6.57c.27.14.37.48.23.75-.1.19-.3.29-.49.29Z"/>
    <path class="cls-1" d="m855.14,88.11c-1.43,3.14-3.75,5.16-5.18,4.51s-1.43-3.73,0-6.87,3.75-5.16,5.18-4.51c1.43.65,1.43,3.73,0,6.87Z"/>
    <path d="m850.55,93.3c-.28,0-.56-.06-.82-.17-.9-.41-1.4-1.48-1.4-3.01,0-1.38.4-3.01,1.12-4.6,1.61-3.53,4.16-5.59,5.91-4.78,1.77.8,1.88,4.07.28,7.6h0c-1.37,3.02-3.43,4.96-5.1,4.96Zm4-11.62c-1.07,0-2.84,1.59-4.08,4.3-.66,1.45-1.02,2.92-1.02,4.14,0,1.03.28,1.78.75,1.99.98.45,3.05-1.18,4.44-4.23h0c1.39-3.05,1.26-5.68.27-6.13-.11-.05-.23-.07-.36-.07Zm.59,6.43h.01-.01Z"/>
    <path class="cls-1" d="m864.08,90.24c-1.43,3.14-3.75,5.16-5.18,4.51s-1.43-3.73,0-6.87,3.75-5.16,5.18-4.51c1.43.65,1.43,3.72,0,6.87Z"/>
    <path d="m859.48,95.43c-.29,0-.56-.06-.81-.17-1.76-.8-1.88-4.07-.28-7.6,1.09-2.39,2.69-4.22,4.19-4.78.63-.23,1.23-.24,1.73,0,.9.41,1.4,1.48,1.4,3.01,0,1.37-.4,3.01-1.12,4.59h0c-.73,1.59-1.69,2.96-2.73,3.87-.83.72-1.64,1.09-2.37,1.09Zm4.01-11.62c-.16,0-.33.04-.52.11-1.19.44-2.62,2.13-3.56,4.2-1.39,3.05-1.26,5.68-.27,6.13.47.21,1.21-.06,1.99-.75.92-.8,1.79-2.04,2.45-3.49h0c.66-1.45,1.02-2.92,1.02-4.14,0-1.05-.27-1.78-.75-1.99-.11-.05-.23-.07-.36-.07Zm-7.45,18.31c-1.26,0-2.2-.31-2.27-.34-.29-.1-.44-.41-.34-.7s.42-.44.7-.35c.02,0,1.87.61,3.67,0,1.82-.62,2.46-1.22,2.46-1.23.22-.21.57-.21.78,0,.21.21.22.56,0,.78-.08.08-.81.78-2.89,1.49-.74.25-1.47.34-2.12.34Zm-.67-7.39c-.48,0-2-.09-2.27-1.23-.28-1.16,1.8-2.2,3.07-2.73.27-.12.6.02.73.3.12.28-.02.61-.3.73-1.17.48-2.32,1.2-2.41,1.51.06.19.8.33,1.27.31h.02c.3,0,.54.23.55.53.01.31-.23.57-.53.58-.03,0-.07,0-.13,0Z"/>
  </g>
</svg>